<svg width="25" height="25" viewBox="0 0 25 25" fill="none" xmlns="http://www.w3.org/2000/svg">
<path d="M1.5625 9.47914C1.5625 6.70807 1.5625 5.32252 2.10179 4.26411C2.57616 3.3331 3.3331 2.57616 4.26411 2.10179C5.32252 1.5625 6.70807 1.5625 9.47914 1.5625H15.5209C18.292 1.5625 19.6775 1.5625 20.7359 2.10179C21.6669 2.57616 22.4238 3.3331 22.8982 4.26411C23.4375 5.32252 23.4375 6.70807 23.4375 9.47914V15.5209C23.4375 18.292 23.4375 19.6775 22.8982 20.7359C22.4238 21.6669 21.6669 22.4238 20.7359 22.8982C19.6775 23.4375 18.292 23.4375 15.5209 23.4375H9.47914C6.70807 23.4375 5.32252 23.4375 4.26411 22.8982C3.3331 22.4238 2.57616 21.6669 2.10179 20.7359C1.5625 19.6775 1.5625 18.292 1.5625 15.5209V9.47914Z" fill="#470137"/>
<path d="M13.0051 7.99519L10.2756 12.6158L13.1958 17.5223C13.2565 17.6336 13.1958 17.6582 13.1078 17.6582H11.0241C10.8773 17.6582 10.7745 17.6529 10.7159 17.5525C10.52 17.1611 10.3244 16.7723 10.1288 16.386C9.93305 15.9998 9.72516 15.606 9.50524 15.2045C9.28508 14.8033 9.06742 14.397 8.85219 13.9854C8.65641 14.3868 8.43867 14.7882 8.22852 15.1895C8.01805 15.5909 7.81016 15.9897 7.60485 16.386C7.39942 16.7825 7.18909 17.1763 6.97387 17.5675C6.93466 17.6578 6.86608 17.6671 6.76838 17.6671H4.75802C4.67902 17.6671 4.66949 17.6077 4.714 17.5374L7.54615 12.7663L4.78735 7.98012C4.73724 7.91184 4.78036 7.8391 4.86074 7.84465H6.92981C7.0194 7.83965 7.09858 7.8734 7.14993 7.95004C7.32603 8.35144 7.52169 8.75285 7.7369 9.1541C7.95195 9.55551 8.16969 9.95191 8.38992 10.3431C8.61008 10.7344 8.82774 11.1307 9.0136 11.5321C9.20914 11.1208 9.40727 10.7195 9.60789 10.3281C9.80836 9.93676 10.0138 9.54293 10.2242 9.1466C10.4345 8.75035 10.6375 8.35652 10.8332 7.96512C10.8592 7.87926 10.9214 7.83574 11.0093 7.84465H12.9316C13.0051 7.84465 13.0354 7.94488 13.0051 7.99519Z" fill="#FF61F6"/>
<path d="M17.2168 17.8535C15.9227 17.8738 14.5672 17.3409 13.8858 16.1603C13.5531 15.5935 13.3868 14.8837 13.3868 14.0306C13.3813 13.3398 13.5534 12.6598 13.8858 12.059C14.7433 10.526 16.471 9.95164 18.112 10.1024V7.13739C18.112 7.06731 18.1414 7.03204 18.2001 7.03204H20.049C20.0996 7.02463 20.1443 7.07049 20.1371 7.12233V16.0173C20.1371 16.3843 20.1735 16.75 20.1958 17.116C20.1994 17.1785 20.1633 17.2404 20.1077 17.2666C19.1942 17.6573 18.2057 17.849 17.2168 17.8535ZM18.112 15.9872V11.8784C16.7717 11.506 15.4704 12.5269 15.4706 13.9403C15.4388 15.4016 16.6985 16.4113 18.112 15.9872Z" fill="#FF61F6"/>
</svg>
