<svg width="25" height="25" viewBox="0 0 25 25" fill="none" xmlns="http://www.w3.org/2000/svg">
<path d="M9.8072 13.5932C9.89809 11.9716 10.6922 10.543 11.8902 9.53023C13.065 8.53548 14.6463 7.92749 16.3716 7.92749C18.0953 7.92749 19.6766 8.53548 20.8523 9.53023C22.0494 10.543 22.8435 11.9716 22.9352 13.5915C23.0261 15.2577 22.3564 16.8056 21.1816 17.9529C19.9836 19.1201 18.2797 19.8524 16.3716 19.8524C14.4636 19.8524 12.7563 19.1201 11.5591 17.9529C10.3835 16.8056 9.71544 15.2577 9.8072 13.5932Z" fill="white"/>
<path d="M13.0043 13.738C13.0509 12.9059 13.4584 12.1728 14.0731 11.6532C14.6759 11.1428 15.4873 10.8308 16.3726 10.8308C17.257 10.8308 18.0684 11.1428 18.6716 11.6532C19.2859 12.1728 19.6933 12.9059 19.7404 13.7371C19.787 14.592 19.4434 15.3862 18.8406 15.975C18.2259 16.5738 17.3516 16.9496 16.3726 16.9496C15.3935 16.9496 14.5175 16.5738 13.9032 15.975C13.3 15.3862 12.9572 14.592 13.0043 13.738Z" fill="#265787"/>
<path d="M7.6573 15.4472C7.66303 15.7735 7.7671 16.4076 7.9232 16.9028C8.25126 17.9509 8.80775 18.9206 9.58206 19.7751C10.3767 20.6535 11.3551 21.359 12.4853 21.8599C13.6732 22.386 14.9603 22.6541 16.2973 22.6519C17.6321 22.6501 18.9192 22.3767 20.1071 21.8467C21.2373 21.3409 22.2149 20.6323 23.0082 19.7535C23.782 18.8954 24.3376 17.924 24.6666 16.8759C24.8319 16.3463 24.9364 15.8088 24.9783 15.2695C25.0193 14.7381 25.0021 14.2059 24.9267 13.6741C24.7795 12.6379 24.421 11.6656 23.8689 10.7793C23.364 9.96483 22.7132 9.25181 21.9393 8.65168L21.9411 8.65035L14.1314 2.65385C14.1243 2.64856 14.1186 2.64283 14.1111 2.63798C13.5987 2.24465 12.7371 2.24597 12.1735 2.64018C11.6038 3.0388 11.5386 3.69802 12.0457 4.11384L12.0435 4.11605L15.3008 6.76484L5.37273 6.77543H5.3595C4.53889 6.77631 3.75003 7.31471 3.59393 7.9951C3.43342 8.68828 3.99079 9.26328 4.84403 9.26636L4.84271 9.26945L9.87485 9.25975L0.895306 16.1523C0.883841 16.1606 0.871495 16.1695 0.860912 16.1778C0.0138434 16.8265 -0.259988 17.9051 0.273564 18.5876C0.815053 19.2817 1.96638 19.283 2.82227 18.5916L7.723 14.5807C7.723 14.5807 7.65157 15.1222 7.6573 15.4472ZM20.2504 17.2604C19.2407 18.2891 17.827 18.8725 16.2973 18.8756C14.7654 18.8782 13.3518 18.3001 12.342 17.2732C11.8485 16.7727 11.4861 16.1968 11.2625 15.5834C11.0434 14.9807 10.9583 14.3408 11.0147 13.6953C11.0681 13.0643 11.2559 12.4624 11.5558 11.9178C11.8503 11.3825 12.256 10.8988 12.7569 10.4896C13.7385 9.68968 14.9881 9.25666 16.2951 9.25489C17.6034 9.25314 18.8522 9.68218 19.8346 10.4794C20.3347 10.8869 20.7399 11.3688 21.0345 11.9033C21.3356 12.4474 21.5222 13.0471 21.5777 13.6799C21.6333 14.3245 21.5482 14.9635 21.329 15.5667C21.105 16.1818 20.7439 16.7577 20.2504 17.2604Z" fill="#EA7600"/>
</svg>
