<svg width="132" height="28" viewBox="0 0 132 28" fill="none" xmlns="http://www.w3.org/2000/svg">
<g clip-path="url(#clip0_281_796)">
<path d="M61.1715 2.80111C60.9676 4.40591 61.9077 5.60222 63.3726 5.60222C64.8379 5.60222 66.0821 4.40591 66.2861 2.80111C66.4901 1.19631 65.5497 0 64.0844 0C62.6195 0 61.3754 1.19631 61.1715 2.80111Z" fill="#283841"/>
<path d="M61.2081 6.91528L59.9516 16.8051L63.9688 16.6348L65.2036 6.91528H61.2081Z" fill="#283841"/>
<path fill-rule="evenodd" clip-rule="evenodd" d="M50.6567 21.7087C53.8258 21.7087 56.5193 19.8421 57.8662 17.0147L59.9132 17.1073L59.3768 21.3293H63.3726L63.8861 17.287L66.0044 17.3828L64.7204 27.486H68.7164L69.6985 19.7538C70.3611 21.0376 71.6078 21.7087 73.1798 21.7087C75.3044 21.7087 77.7992 20.4952 79.2903 17.9838L80.8206 18.053C81.0815 20.2349 82.9194 21.7087 85.8354 21.7087C89.2181 21.7087 91.7078 19.7247 92.0861 16.7485C92.52 13.3346 89.6867 12.7802 87.8324 12.4885L87.6707 12.4611C86.5497 12.272 85.6939 12.1278 85.8 11.2921C85.8745 10.7086 86.3444 10.1542 87.3297 10.1542C88.1293 10.1542 88.6137 10.5335 88.6352 11.2046H92.5238C92.7739 8.60774 91.0131 6.53608 87.7364 6.53608C84.4598 6.53608 82.0958 8.57855 81.7251 11.4964C81.2842 14.9686 84.2046 15.4646 85.9787 15.7564L86.0766 15.7729L86.2131 15.7956L86.2143 15.7958C87.2994 15.9762 88.1179 16.1122 88.0036 17.0111C87.9259 17.6238 87.4667 18.0906 86.2415 18.0906C85.1495 18.0906 84.6916 17.7114 84.7611 16.9527L56.4827 16.9521L57.9239 16.8911C58.312 16.0437 58.5803 15.113 58.7062 14.1224C59.2623 9.74566 56.7399 6.53608 52.5845 6.53608C52.5201 6.53608 52.4559 6.53685 52.3919 6.53839L52.4046 6.52895L39.8081 6.52896C39.6275 6.52762 39.4562 6.52761 39.2957 6.52896H39.8081C43.0428 6.55309 49.2074 7.00691 48.4143 7.74625C46.3432 9.06568 44.8858 11.3619 44.535 14.1224C43.9789 18.4992 46.5013 21.7087 50.6567 21.7087ZM51.1757 17.6238C52.9871 17.6238 54.3941 16.1941 54.6573 14.1224C54.9205 12.0508 53.8769 10.621 52.0655 10.621C50.2541 10.621 48.8471 12.0508 48.5839 14.1224C48.3207 16.1941 49.3644 17.6238 51.1757 17.6238Z" fill="#283841"/>
<path d="M76.4874 14.1225C76.3895 14.8969 76.1311 15.5815 75.7516 16.1354L80.1714 15.948C80.3236 15.4334 80.4398 14.8834 80.5143 14.2975C81.1036 9.65821 78.5703 6.53613 74.388 6.53613C70.3661 6.53613 67.0156 9.42476 66.3998 14.2683L66.1111 16.544L70.7413 16.3478C70.4255 15.7607 70.3029 14.9991 70.4141 14.1225C70.6775 12.0508 72.0846 10.6211 73.896 10.6211C75.7074 10.6211 76.7507 12.0508 76.4874 14.1225Z" fill="#283841"/>
<path d="M107.656 19.1142L108.405 13.2179C108.995 8.5786 111.705 6.53613 114.902 6.53613C116.766 6.53613 118.238 7.32392 119.031 8.84124C120.209 7.32392 121.854 6.53613 123.745 6.53613C126.942 6.53613 129.133 8.5786 128.544 13.2179L127.513 21.3295H123.517L124.548 13.2179C124.793 11.2922 124.026 10.6211 122.827 10.6211C121.655 10.6211 120.717 11.2922 120.472 13.2179L119.442 21.3295H115.446L116.477 13.2179C116.721 11.2922 115.955 10.6211 114.783 10.6211C113.584 10.6211 112.646 11.2922 112.401 13.2179L111.371 21.3295H108.976L108.977 21.3312H103.379C105.702 21.0708 107.487 20.3675 107.653 19.108L107.656 19.1142Z" fill="#283841"/>
<path d="M99.132 21.7087C95.2428 21.7087 92.9438 19.2577 93.5628 14.3849L94.2626 8.87997C94.3743 7.45799 93.3619 7.28033 91.1287 6.92404H94.5108L94.512 6.91528H98.508L97.5588 14.3849C97.2695 16.6608 98.1594 17.6237 99.6512 17.6237C101.143 17.6237 102.277 16.6608 102.567 14.3849L103.516 6.91528H107.511L106.562 14.3849C105.947 19.2285 103.021 21.7087 99.132 21.7087Z" fill="#283841"/>
<path d="M31.0846 19.6235C30.8022 19.2817 30.5584 18.9036 30.3564 18.4934L27.5036 18.3216C26.028 20.4031 23.7101 21.7088 21.0597 21.7088C16.9042 21.7088 14.3818 18.4992 14.938 14.1225C15.4941 9.74571 18.832 6.53613 22.9874 6.53613C27.1429 6.53613 29.6652 9.74571 29.1091 14.1225C28.982 15.1229 28.7095 16.0624 28.3152 16.9164L23.1759 17.2066C24.1766 16.6381 24.8817 15.528 25.0602 14.1225C25.3235 12.0508 24.2798 10.6211 22.4684 10.6211C20.6571 10.6211 19.2501 12.0508 18.9869 14.1225C18.7898 15.6732 19.3252 16.8644 20.3666 17.3652L15.8572 17.6199H36.4756V17.6225C38.2393 17.5716 39.6003 16.1565 39.8587 14.1225C40.1219 12.0508 39.0782 10.6211 37.2669 10.6211C35.4556 10.6211 34.0486 12.0508 33.7853 14.1225C33.6586 15.1202 33.835 15.9691 34.2543 16.5811L29.8034 16.8324C29.6411 16.0008 29.6135 15.0902 29.7364 14.1225C30.2925 9.74571 33.6304 6.53613 37.7859 6.53613C41.9414 6.53613 44.4637 9.74571 43.9076 14.1225C43.3704 18.3502 40.2377 21.4889 36.2797 21.6977C37.2119 22.2781 38.5658 22.7474 39.5609 23.0923C39.893 23.2075 40.1851 23.3087 40.4082 23.3956C41.312 23.6427 41.8895 24.5651 41.7497 25.6653C41.5859 26.9547 40.4988 28 39.3217 28H32.9274C30.8373 28 29.3078 26.3523 29.2202 24.178L21.3335 23.3317H29.2577L29.2579 23.3306H36.0766C34.5175 22.6702 32.87 21.3488 31.8108 20.3518C31.5467 20.1326 31.3045 19.8895 31.0855 19.6245L31.0846 19.6235Z" fill="#283841"/>
<path d="M0 2.24687L3.26387 2.82143L0.912354 21.3294H13.4586L14.0147 16.9527H5.78372L7.65215 2.24683L0 2.24687Z" fill="#283841"/>
<path d="M132 5.51388C132 6.44395 131.319 7.19794 130.477 7.19794C129.637 7.19794 128.955 6.44395 128.955 5.51388C128.955 4.5838 129.637 3.82983 130.477 3.82983C131.319 3.82983 132 4.5838 132 5.51388Z" fill="#283841"/>
</g>
<defs>
<clipPath id="clip0_281_796">
<rect width="132" height="28" fill="white"/>
</clipPath>
</defs>
</svg>
