<svg width="132" height="26" viewBox="0 0 132 26" fill="none" xmlns="http://www.w3.org/2000/svg">
<g clip-path="url(#clip0_281_810)">
<path d="M127.435 8.44385C128.803 8.44385 129.902 8.87363 130.733 9.73325C131.578 10.5793 132 11.7664 132 13.2946V19.9466H129.185V13.6835C129.185 12.7966 128.964 12.1212 128.521 11.6573C128.079 11.1796 127.476 10.9409 126.712 10.9409C125.948 10.9409 125.337 11.1796 124.882 11.6573C124.44 12.1212 124.218 12.7966 124.218 13.6835V19.9466H121.403V13.6835C121.403 12.7966 121.182 12.1212 120.739 11.6573C120.297 11.1796 119.694 10.9409 118.93 10.9409C118.152 10.9409 117.535 11.1796 117.08 11.6573C116.638 12.1212 116.416 12.7966 116.416 13.6835V19.9466H113.601V8.60758H116.416V9.97889C116.778 9.50133 117.241 9.12609 117.804 8.85315C118.38 8.58028 119.01 8.44385 119.694 8.44385C120.565 8.44385 121.342 8.63482 122.027 9.01689C122.71 9.38531 123.24 9.91746 123.615 10.6134C123.977 9.95841 124.5 9.43308 125.183 9.03736C125.88 8.64164 126.631 8.44385 127.435 8.44385Z" fill="#283841"/>
<path d="M111.527 8.60754V19.9465H108.692V18.5138C108.33 19.005 107.854 19.3939 107.264 19.6805C106.688 19.9534 106.058 20.0898 105.374 20.0898C104.503 20.0898 103.732 19.9056 103.062 19.5372C102.392 19.1552 101.862 18.6025 101.474 17.8793C101.098 17.1425 100.911 16.2692 100.911 15.2594V8.60754H103.725V14.8501C103.725 15.7507 103.947 16.4466 104.389 16.9378C104.832 17.4154 105.435 17.6542 106.199 17.6542C106.976 17.6542 107.586 17.4154 108.028 16.9378C108.471 16.4466 108.692 15.7507 108.692 14.8501V8.60754H111.527Z" fill="#283841"/>
<path d="M95.0202 20.1307C94.1089 20.1307 93.2908 19.967 92.567 19.6395C91.8433 19.2984 91.2668 18.8413 90.8376 18.2682C90.4219 17.6951 90.1942 17.0606 90.1541 16.3647H92.9892C93.0427 16.8014 93.2506 17.163 93.6128 17.4495C93.9878 17.7361 94.4507 17.8793 94.9998 17.8793C95.5361 17.8793 95.9518 17.7701 96.2471 17.5519C96.5551 17.3335 96.7094 17.0538 96.7094 16.7127C96.7094 16.3442 96.5213 16.0714 96.1463 15.894C95.7841 15.7029 95.2013 15.4983 94.3965 15.2799C93.5656 15.0752 92.8821 14.8638 92.3458 14.6455C91.8229 14.4271 91.3676 14.0928 90.9786 13.6425C90.603 13.1923 90.4155 12.585 90.4155 11.821C90.4155 11.1932 90.5896 10.6201 90.9384 10.1016C91.3 9.58314 91.8095 9.17377 92.4663 8.8736C93.1365 8.57343 93.9208 8.42334 94.8193 8.42334C96.1463 8.42334 97.2055 8.76446 97.9962 9.4467C98.787 10.1153 99.2225 11.0227 99.3035 12.1689H96.6087C96.5685 11.7186 96.381 11.3638 96.0456 11.1046C95.7242 10.8317 95.288 10.6952 94.739 10.6952C94.2295 10.6952 93.8341 10.7907 93.5523 10.9817C93.2844 11.1728 93.1499 11.4389 93.1499 11.78C93.1499 12.1621 93.338 12.4554 93.7129 12.6601C94.0885 12.8511 94.6714 13.049 95.4627 13.2537C96.2669 13.4584 96.9307 13.6698 97.4536 13.8881C97.9758 14.1065 98.4254 14.4476 98.8004 14.9115C99.1894 15.3618 99.3902 15.9622 99.4036 16.7127C99.4036 17.3677 99.2225 17.9544 98.8609 18.4729C98.5121 18.9914 98.0026 19.4007 97.3324 19.701C96.6756 19.9875 95.9047 20.1307 95.0202 20.1307Z" fill="#283841"/>
<path d="M80.6482 10.2449C81.0104 9.7264 81.5065 9.29662 82.1366 8.9555C82.78 8.60073 83.5101 8.42334 84.3283 8.42334C85.2797 8.42334 86.138 8.66209 86.902 9.13971C87.6793 9.61726 88.2896 10.2995 88.7321 11.1864C89.1874 12.0597 89.4157 13.0763 89.4157 14.2361C89.4157 15.396 89.1874 16.4261 88.7321 17.3267C88.2896 18.2136 87.6793 18.9027 86.902 19.3939C86.138 19.8852 85.2797 20.1308 84.3283 20.1308C83.5101 20.1308 82.7864 19.9602 82.1563 19.6191C81.5397 19.278 81.0372 18.8481 80.6482 18.3296V25.35H77.8335V8.60755H80.6482V10.2449ZM86.5398 14.2361C86.5398 13.5539 86.3995 12.9671 86.1176 12.4759C85.8498 11.971 85.4876 11.589 85.0316 11.3297C84.5897 11.0705 84.107 10.9409 83.5841 10.9409C83.0746 10.9409 82.5919 11.0773 82.1366 11.3502C81.694 11.6094 81.3318 11.9915 81.0506 12.4964C80.7821 13.0012 80.6482 13.5948 80.6482 14.277C80.6482 14.9593 80.7821 15.5529 81.0506 16.0577C81.3318 16.5626 81.694 16.9515 82.1366 17.2243C82.5919 17.4836 83.0746 17.6132 83.5841 17.6132C84.107 17.6132 84.5897 17.4768 85.0316 17.2039C85.4876 16.931 85.8498 16.5421 86.1176 16.0372C86.3995 15.5324 86.5398 14.932 86.5398 14.2361Z" fill="#283841"/>
<path d="M74.3683 7.25669C73.8722 7.25669 73.4564 7.09978 73.1216 6.78596C72.7996 6.45847 72.6389 6.05594 72.6389 5.57836C72.6389 5.10079 72.7996 4.70508 73.1216 4.39124C73.4564 4.06377 73.8722 3.90002 74.3683 3.90002C74.8644 3.90002 75.2732 4.06377 75.5946 4.39124C75.93 4.70508 76.0977 5.10079 76.0977 5.57836C76.0977 6.05594 75.93 6.45847 75.5946 6.78596C75.2732 7.09978 74.8644 7.25669 74.3683 7.25669ZM75.7559 8.60758V19.9466H72.9405V8.60758H75.7559Z" fill="#283841"/>
<path d="M65.7679 20.1307C64.6959 20.1307 63.7304 19.892 62.8725 19.4144C62.0145 18.9232 61.3376 18.2341 60.8416 17.3472C60.359 16.4603 60.1177 15.4368 60.1177 14.277C60.1177 13.1172 60.3657 12.0938 60.8617 11.2069C61.371 10.32 62.0615 9.63774 62.9328 9.16018C63.8044 8.66891 64.7763 8.42334 65.8482 8.42334C66.9208 8.42334 67.8926 8.66891 68.7643 9.16018C69.6354 9.63774 70.319 10.32 70.8151 11.2069C71.3246 12.0938 71.579 13.1172 71.579 14.277C71.579 15.4368 71.3176 16.4603 70.7953 17.3472C70.2858 18.2341 69.5888 18.9232 68.7037 19.4144C67.8327 19.892 66.8538 20.1307 65.7679 20.1307ZM65.7679 17.6337C66.2774 17.6337 66.7531 17.5109 67.1956 17.2653C67.6516 17.0061 68.0131 16.624 68.2816 16.1191C68.5494 15.6142 68.684 15.0002 68.684 14.277C68.684 13.1991 68.4021 12.3736 67.839 11.8005C67.2894 11.2137 66.6128 10.9204 65.808 10.9204C65.0039 10.9204 64.3267 11.2137 63.777 11.8005C63.2411 12.3736 62.973 13.1991 62.973 14.277C62.973 15.355 63.2344 16.1873 63.7572 16.7741C64.2935 17.3472 64.9637 17.6337 65.7679 17.6337Z" fill="#283841"/>
<path d="M53.649 20.1307C52.5766 20.1307 51.6114 19.892 50.7534 19.4144C49.8955 18.9232 49.2185 18.2341 48.7226 17.3472C48.24 16.4603 47.9987 15.4368 47.9987 14.277C47.9987 13.1172 48.2467 12.0938 48.7426 11.2069C49.252 10.32 49.9424 9.63774 50.8138 9.16018C51.6851 8.66891 52.657 8.42334 53.7294 8.42334C54.8019 8.42334 55.7738 8.66891 56.6451 9.16018C57.5164 9.63774 58.2001 10.32 58.6961 11.2069C59.2055 12.0938 59.4602 13.1172 59.4602 14.277C59.4602 15.4368 59.1988 16.4603 58.676 17.3472C58.1666 18.2341 57.4695 18.9232 56.5848 19.4144C55.7135 19.892 54.7349 20.1307 53.649 20.1307ZM53.649 17.6337C54.1584 17.6337 54.6343 17.5109 55.0767 17.2653C55.5325 17.0061 55.8944 16.624 56.1625 16.1191C56.4306 15.6142 56.5647 15.0002 56.5647 14.277C56.5647 13.1991 56.2832 12.3736 55.7201 11.8005C55.1705 11.2137 54.4936 10.9204 53.6892 10.9204C52.8849 10.9204 52.2079 11.2137 51.6583 11.8005C51.1221 12.3736 50.854 13.1991 50.854 14.277C50.854 15.355 51.1154 16.1873 51.6382 16.7741C52.1744 17.3472 52.8447 17.6337 53.649 17.6337Z" fill="#283841"/>
<path d="M41.5301 20.1307C40.4577 20.1307 39.4925 19.892 38.6345 19.4144C37.7766 18.9232 37.0996 18.2341 36.6037 17.3472C36.1211 16.4603 35.8798 15.4368 35.8798 14.277C35.8798 13.1172 36.1278 12.0938 36.6237 11.2069C37.1331 10.32 37.8235 9.63774 38.6949 9.16018C39.5662 8.66891 40.5381 8.42334 41.6105 8.42334C42.683 8.42334 43.6549 8.66891 44.5262 9.16018C45.3975 9.63774 46.0812 10.32 46.5772 11.2069C47.0866 12.0938 47.3413 13.1172 47.3413 14.277C47.3413 15.4368 47.0799 16.4603 46.5571 17.3472C46.0477 18.2341 45.3506 18.9232 44.4659 19.4144C43.5946 19.892 42.616 20.1307 41.5301 20.1307ZM41.5301 17.6337C42.0395 17.6337 42.5154 17.5109 42.9578 17.2653C43.4136 17.0061 43.7755 16.624 44.0436 16.1191C44.3117 15.6142 44.4458 15.0002 44.4458 14.277C44.4458 13.1991 44.1643 12.3736 43.6013 11.8005C43.0516 11.2137 42.3747 10.9204 41.5703 10.9204C40.766 10.9204 40.089 11.2137 39.5394 11.8005C39.0032 12.3736 38.7351 13.1991 38.7351 14.277C38.7351 15.355 38.9965 16.1873 39.5193 16.7741C40.0555 17.3472 40.7258 17.6337 41.5301 17.6337Z" fill="#283841"/>
<path d="M30.8731 17.6746H35.4979V19.9465H28.058V5.66016H30.8731V17.6746Z" fill="#283841"/>
<path d="M48.7415 21.4697C49.4545 23.6282 51.4587 25.183 53.8197 25.183H54.1135C57.0718 25.183 59.47 22.742 59.47 19.7308V19.4227H56.566V19.7308C56.566 21.1095 55.468 22.2272 54.1135 22.2272H53.8197C53.1294 22.2272 52.5058 21.9369 52.0601 21.4697H48.7415Z" fill="#283841"/>
<path d="M9.56522 0L13.0435 3.46666L0 16.4666V9.53335L9.56522 0Z" fill="#283841"/>
<path d="M1.85455 18.315L9.56522 26L19.1304 16.4667V9.53334L13.0435 3.46667L0 16.4667L0.00265837 16.4694L13.0435 3.46667V13.4333L7.17391 19.2833V13.086L1.85455 18.315Z" fill="#283841"/>
</g>
<defs>
<clipPath id="clip0_281_810">
<rect width="132" height="26" fill="white"/>
</clipPath>
</defs>
</svg>
