<svg width="132" height="34" viewBox="0 0 132 34" fill="none" xmlns="http://www.w3.org/2000/svg">
<g clip-path="url(#clip0_281_673)">
<path d="M12.1876 25.5353C12.1873 25.5695 12.1871 25.604 12.1871 25.6384C12.1871 25.9024 12.1965 26.1615 12.2155 26.4156H17.5087C17.4611 26.1697 17.4373 25.9106 17.4373 25.6384C17.4373 25.6038 17.4377 25.5694 17.4385 25.5353H12.1876Z" fill="#283841"/>
<path d="M5.72943 25.5353V26.4156H0.70752V25.5353H5.72943Z" fill="#283841"/>
<path d="M12.2345 24.6395H17.562C17.6298 24.3829 17.7251 24.1387 17.8482 23.9068C17.8772 23.8564 17.9074 23.8072 17.9385 23.759H12.3628C12.3065 24.0456 12.2637 24.339 12.2345 24.6395Z" fill="#283841"/>
<path d="M5.72943 23.759V24.6395H0.70752V23.759H5.72943Z" fill="#283841"/>
<path d="M11.7182 22.8633C11.5084 22.6632 11.2165 22.5098 10.8427 22.4032C10.4317 22.2969 9.84593 22.2437 9.08501 22.2437H5.72943V22.8633H0.70752V21.9829H11.984V22.8633H11.7182Z" fill="#283841"/>
<path d="M12.5899 22.8633H18.8103C18.8828 22.8137 18.9578 22.7666 19.0352 22.7221C19.5374 22.4336 20.1157 22.2893 20.7701 22.2893C21.4245 22.2893 21.9951 22.4336 22.4821 22.7221C22.5596 22.7666 22.6343 22.8137 22.7064 22.8633H28.9125C28.8464 22.6604 28.7726 22.4615 28.691 22.2665C28.6523 22.1708 28.6121 22.0762 28.5704 21.9829H12.9282C12.8851 22.0762 12.8435 22.1708 12.8035 22.2665C12.7247 22.4615 12.6535 22.6604 12.5899 22.8633Z" fill="#283841"/>
<path d="M13.4098 21.087H28.0994C27.9102 20.7776 27.7007 20.4841 27.4706 20.2067H14.0452C13.8139 20.4841 13.6021 20.7776 13.4098 21.087Z" fill="#283841"/>
<path d="M14.929 19.3109H26.5938C26.2116 18.9795 25.7967 18.686 25.3489 18.4304H16.179C15.733 18.686 15.3164 18.9795 14.929 19.3109Z" fill="#283841"/>
<path d="M11.984 18.4304V19.3109H0.616482C0.591218 19.1583 0.560686 19.0195 0.524903 18.8944C0.479781 18.7207 0.422348 18.566 0.352638 18.4304H11.984Z" fill="#283841"/>
<path d="M34.6158 18.4304C34.5943 18.4407 34.5728 18.4511 34.5514 18.4615C34.0528 18.7075 33.5944 18.9907 33.1762 19.3109H44.4036C44.4066 19.301 44.4096 19.2913 44.4126 19.2818C44.5192 18.9476 44.6866 18.6893 44.9148 18.5071V18.4304H34.6158Z" fill="#283841"/>
<path d="M49.1273 18.4304C48.6813 18.686 48.2647 18.9795 47.8773 19.3109H59.5422C59.16 18.9795 58.745 18.686 58.2972 18.4304H49.1273Z" fill="#283841"/>
<path d="M84.3207 18.4304H91.4522C91.7204 18.5742 91.9682 18.7364 92.1956 18.9171C92.3515 19.0423 92.4954 19.1736 92.6291 19.3109H84.3207V18.4304Z" fill="#283841"/>
<path d="M70.0146 18.4304H75.7541C75.6839 18.5589 75.6212 18.706 75.5658 18.8717C75.5229 19.0002 75.4867 19.1465 75.4572 19.3109H70.2588C70.2367 19.1583 70.2099 19.0195 70.1787 18.8944C70.1336 18.7207 70.0788 18.566 70.0146 18.4304Z" fill="#283841"/>
<path d="M63.204 18.4304H68.8737C68.8094 18.566 68.7547 18.7207 68.7096 18.8944C68.6782 19.0195 68.6515 19.1583 68.6294 19.3109H63.4482C63.4261 19.1583 63.3994 19.0195 63.3681 18.8944C63.323 18.7207 63.2683 18.566 63.204 18.4304Z" fill="#283841"/>
<path d="M60.419 20.2067H46.9935C46.7621 20.4841 46.5504 20.7776 46.3581 21.087H61.0477C60.8586 20.7776 60.6489 20.4841 60.419 20.2067Z" fill="#283841"/>
<path d="M63.5279 21.087V20.6487C63.5279 20.4946 63.5256 20.3472 63.521 20.2067H68.5566C68.5521 20.3472 68.5498 20.4946 68.5498 20.6487V21.087H63.5279Z" fill="#283841"/>
<path d="M61.5186 21.9829H45.8765C45.8335 22.0762 45.7918 22.1708 45.7518 22.2665C45.673 22.4615 45.6018 22.6604 45.5382 22.8633H51.7586C51.8311 22.8137 51.9061 22.7666 51.9835 22.7221C52.4857 22.4336 53.064 22.2893 53.7184 22.2893C54.3728 22.2893 54.9434 22.4336 55.4304 22.7221C55.5079 22.7666 55.5826 22.8137 55.6547 22.8633H61.8607C61.7948 22.6604 61.721 22.4615 61.6393 22.2665C61.6006 22.1708 61.5605 22.0762 61.5186 21.9829Z" fill="#283841"/>
<path d="M63.5278 22.8633V21.9829H68.5498V22.8633H63.5278Z" fill="#283841"/>
<path d="M62.0963 23.759H56.5085C56.5384 23.8072 56.567 23.8564 56.5945 23.9068C56.7244 24.1387 56.8251 24.3829 56.8966 24.6395H62.2293C62.199 24.339 62.1546 24.0456 62.0963 23.759Z" fill="#283841"/>
<path d="M63.5278 24.6395V23.759H68.5498V24.6395H63.5278Z" fill="#283841"/>
<path d="M62.2779 25.5353H57.027C57.0278 25.5694 57.0283 25.6038 57.0283 25.6384C57.0283 25.9106 57.0031 26.1697 56.9529 26.4156H62.249C62.2687 26.1615 62.2785 25.9024 62.2785 25.6384C62.2785 25.604 62.2783 25.5695 62.2779 25.5353Z" fill="#283841"/>
<path d="M63.5278 26.4156V25.5353H68.5498V26.4156H63.5278Z" fill="#283841"/>
<path d="M62.1357 27.3114H56.6274C56.6167 27.331 56.6057 27.3505 56.5945 27.3699C56.4217 27.6862 56.2034 27.9602 55.9397 28.1917H61.9294C62.0133 27.9058 62.0821 27.6125 62.1357 27.3114Z" fill="#283841"/>
<path d="M63.5278 28.1917V27.3114H68.5498V28.1917H63.5278Z" fill="#283841"/>
<path d="M61.6076 29.0876H45.7846C45.9161 29.3937 46.0631 29.6871 46.2253 29.9681H61.1783C61.3374 29.6871 61.4806 29.3937 61.6076 29.0876Z" fill="#283841"/>
<path d="M63.5278 29.9681V29.0876H68.5498V29.9681H63.5278Z" fill="#283841"/>
<path d="M60.5839 30.8639H46.8275C47.0438 31.1422 47.2787 31.4053 47.5323 31.6534C47.5641 31.684 47.5963 31.7142 47.6286 31.7442H59.7871C59.8188 31.7142 59.8503 31.684 59.8816 31.6534C60.1352 31.4053 60.3692 31.1422 60.5839 30.8639Z" fill="#283841"/>
<path d="M63.4752 31.7442C63.5037 31.4869 63.5206 31.1935 63.526 30.8639H68.5516C68.557 31.1935 68.5739 31.4869 68.6024 31.7442H63.4752Z" fill="#283841"/>
<path d="M58.6387 32.64H48.7866C49.2413 32.9305 49.7287 33.1787 50.2487 33.3849C51.2987 33.795 52.4553 34 53.7184 34C54.9662 34 56.1152 33.795 57.1652 33.3849C57.6929 33.1787 58.1841 32.9305 58.6387 32.64Z" fill="#283841"/>
<path d="M43.1344 31.7442V30.8639H31.9955C32.2645 31.182 32.5612 31.4754 32.8861 31.7442H43.1344Z" fill="#283841"/>
<path d="M34.2404 32.64H43.1344V33.795C42.7995 33.6887 42.4647 33.6355 42.13 33.6355C41.9016 33.6355 41.5745 33.6659 41.1484 33.7267C40.7375 33.7873 40.2581 33.8178 39.7103 33.8178C37.7471 33.8178 36.058 33.4912 34.6427 32.8381C34.5055 32.7748 34.3714 32.7088 34.2404 32.64Z" fill="#283841"/>
<path d="M26.8388 31.7442C26.8705 31.7142 26.902 31.684 26.9333 31.6534C27.1868 31.4053 27.4209 31.1422 27.6356 30.8639H13.8792C14.0955 31.1422 14.3304 31.4053 14.584 31.6534C14.6158 31.684 14.6479 31.7142 14.6803 31.7442H26.8388Z" fill="#283841"/>
<path d="M15.8383 32.64H25.6903C25.2358 32.9305 24.7445 33.1787 24.2169 33.3849C23.1669 33.795 22.0179 34 20.7701 34C19.507 34 18.3504 33.795 17.3003 33.3849C16.7803 33.1787 16.293 32.9305 15.8383 32.64Z" fill="#283841"/>
<path d="M5.79202 31.7442C5.75816 31.4874 5.73804 31.1939 5.73165 30.8639H0.705644C0.700273 31.1935 0.68337 31.4869 0.654915 31.7442H5.79202Z" fill="#283841"/>
<path d="M0.464006 32.64H6.02357C6.14755 32.9305 6.30062 33.1484 6.48272 33.2937V33.4989H0.0683594V33.2937C0.231454 33.1426 0.363343 32.9247 0.464006 32.64Z" fill="#283841"/>
<path d="M0.70752 29.9681H5.72943V29.0876H0.70752V29.9681Z" fill="#283841"/>
<path d="M0.70752 28.1917H5.72943V27.3114H0.70752V28.1917Z" fill="#283841"/>
<path d="M12.3248 27.3114C12.3765 27.6125 12.4428 27.9058 12.5237 28.1917H18.5228C18.2555 27.9602 18.0306 27.6862 17.8482 27.3699C17.8376 27.3505 17.8272 27.331 17.817 27.3114H12.3248Z" fill="#283841"/>
<path d="M23.6792 27.3114C23.6684 27.331 23.6574 27.3505 23.6462 27.3699C23.4734 27.6862 23.2551 27.9602 22.9913 28.1917H28.9811C29.065 27.9058 29.1338 27.6125 29.1874 27.3114H23.6792Z" fill="#283841"/>
<path d="M30.3812 27.3114C30.4337 27.6146 30.5004 27.908 30.5814 28.1917H36.6784C36.4014 27.9788 36.1717 27.7277 35.9895 27.4383C35.9633 27.3967 35.9381 27.3543 35.9139 27.3114H30.3812Z" fill="#283841"/>
<path d="M35.578 26.4156H30.2702C30.2481 26.1337 30.2371 25.8443 30.2371 25.5473C30.2371 25.5433 30.2371 25.5393 30.2371 25.5353H35.4873C35.488 25.8475 35.5182 26.141 35.578 26.4156Z" fill="#283841"/>
<path d="M44.803 26.4156H39.0389C39.2003 26.2196 39.3253 25.9454 39.4136 25.5929C39.4184 25.574 39.4232 25.5548 39.4279 25.5353H44.3982C44.4029 25.5548 44.4077 25.574 44.4126 25.5929C44.5009 25.9454 44.6311 26.2196 44.803 26.4156Z" fill="#283841"/>
<path d="M45.2731 27.3114C45.3248 27.6125 45.3911 27.9058 45.472 28.1917H51.4711C51.2038 27.9602 50.979 27.6862 50.7965 27.3699C50.7859 27.3505 50.7755 27.331 50.7653 27.3114H45.2731Z" fill="#283841"/>
<path d="M50.457 26.4156H45.1638C45.1449 26.1615 45.1354 25.9024 45.1354 25.6384C45.1354 25.604 45.1356 25.5695 45.1359 25.5353H50.3869C50.386 25.5694 50.3856 25.6038 50.3856 25.6384C50.3856 25.9106 50.4094 26.1697 50.457 26.4156Z" fill="#283841"/>
<path d="M50.5103 24.6395C50.5781 24.3829 50.6735 24.1387 50.7965 23.9068C50.8255 23.8564 50.8557 23.8072 50.8869 23.759H45.3111C45.2548 24.0456 45.212 24.339 45.1828 24.6395H50.5103Z" fill="#283841"/>
<path d="M44.2766 24.6395C44.2608 24.3985 44.2529 24.1315 44.2529 23.8385V23.759H39.5734V23.8385C39.5734 24.1315 39.5654 24.3985 39.5496 24.6395H44.2766Z" fill="#283841"/>
<path d="M35.5782 24.6395C35.6466 24.3247 35.7537 24.0313 35.8996 23.759H30.4068C30.3496 24.0447 30.3069 24.3382 30.2787 24.6395H35.5782Z" fill="#283841"/>
<path d="M29.281 24.6395C29.2507 24.339 29.2063 24.0456 29.148 23.759H23.5603C23.5901 23.8072 23.6187 23.8564 23.6462 23.9068C23.7761 24.1387 23.8768 24.3829 23.9483 24.6395H29.281Z" fill="#283841"/>
<path d="M24.0787 25.5353C24.0795 25.5694 24.08 25.6038 24.08 25.6384C24.08 25.9106 24.0548 26.1697 24.0046 26.4156H29.3007C29.3204 26.1615 29.3301 25.9024 29.3301 25.6384C29.3301 25.604 29.33 25.5695 29.3296 25.5353H24.0787Z" fill="#283841"/>
<path d="M30.6415 22.8633H36.6619C36.8452 22.7152 37.0472 22.5846 37.2678 22.4716C37.8461 22.1981 38.5233 22.0614 39.2995 22.0614C39.3914 22.0614 39.4826 22.0624 39.5733 22.0643V22.8633H44.2529V21.9829H30.995C30.8587 22.2665 30.7409 22.56 30.6415 22.8633Z" fill="#283841"/>
<path d="M31.5079 21.087H44.2529V20.8538C44.2529 20.6172 44.2587 20.4015 44.2704 20.2067H32.1979C31.9472 20.4811 31.7172 20.7745 31.5079 21.087Z" fill="#283841"/>
<path d="M43.1344 29.0876H30.8986C31.0299 29.3943 31.1806 29.6878 31.3509 29.9681H43.1344V29.0876Z" fill="#283841"/>
<path d="M28.2299 29.9681C28.3891 29.6871 28.5323 29.3937 28.6593 29.0876H12.8362C12.9678 29.3937 13.1148 29.6871 13.277 29.9681H28.2299Z" fill="#283841"/>
<path d="M63.2844 32.64H68.7933C68.8939 32.9247 69.0259 33.1426 69.1889 33.2937V33.4989H62.8887V33.2937C63.0518 33.1426 63.1837 32.9247 63.2844 32.64Z" fill="#283841"/>
<path d="M70.0696 32.64C69.9635 32.9247 69.8173 33.1426 69.6309 33.2937V33.4989H76.9583C78.3279 33.4989 79.4997 33.2785 80.4737 32.8381C80.6179 32.7761 80.7572 32.7101 80.8917 32.64H70.0696Z" fill="#283841"/>
<path d="M85.8732 32.64C86.9284 33.334 88.3429 33.681 90.1185 33.681C90.5299 33.681 90.902 33.6582 91.2375 33.6127C91.5722 33.5671 91.8234 33.5443 91.9904 33.5443C92.2493 33.5443 92.5311 33.5975 92.8352 33.7039V32.64H85.8732Z" fill="#283841"/>
<path d="M92.8352 31.7442H84.8663C84.6451 31.4738 84.4653 31.1803 84.3266 30.8639H92.8352V31.7442Z" fill="#283841"/>
<path d="M94.4354 32.64C94.3349 32.9247 94.2029 33.1426 94.0394 33.2937V33.4989H100.317V33.2937C100.154 33.1426 100.022 32.9247 99.9215 32.64H94.4354Z" fill="#283841"/>
<path d="M99.746 31.7442H94.6261C94.6551 31.4869 94.6713 31.1935 94.6772 30.8639H99.7026C99.7068 31.1935 99.7213 31.4869 99.746 31.7442Z" fill="#283841"/>
<path d="M102.456 32.64C102.361 32.9247 102.227 33.1426 102.052 33.2937V33.4989H108.352V33.2937C108.178 33.1426 108.038 32.9247 107.935 32.64H102.456Z" fill="#283841"/>
<path d="M107.743 31.7442H102.638C102.667 31.4869 102.684 31.1935 102.689 30.8639H107.692C107.698 31.1935 107.715 31.4869 107.743 31.7442Z" fill="#283841"/>
<path d="M109.077 32.64C108.96 32.9271 108.804 33.1449 108.609 33.2937V33.4989H114.11V33.3393C113.98 33.1096 113.908 32.8764 113.897 32.64H109.077Z" fill="#283841"/>
<path d="M114.148 31.7442H109.292C109.324 31.4885 109.345 31.1951 109.355 30.8639H114.932L114.612 31.1749C114.418 31.3686 114.263 31.5584 114.148 31.7442Z" fill="#283841"/>
<path d="M121.282 32.64C121.267 32.8761 121.196 33.1092 121.072 33.3393V33.4989H126.505V33.2937C126.321 33.1449 126.168 32.9271 126.045 32.64H121.282Z" fill="#283841"/>
<path d="M125.822 31.7442H121.067C120.949 31.5393 120.783 31.3343 120.57 31.1293L120.305 30.8639H125.758C125.768 31.1951 125.789 31.4885 125.822 31.7442Z" fill="#283841"/>
<path d="M125.752 29.9681V29.0876H118.535L119.412 29.9681H125.752Z" fill="#283841"/>
<path d="M115.852 29.9681L116.757 29.0876H109.362V29.9681H115.852Z" fill="#283841"/>
<path d="M107.69 29.9681V29.0876H102.691V29.9681H107.69Z" fill="#283841"/>
<path d="M99.7009 29.9681V29.0876H94.6789V29.9681H99.7009Z" fill="#283841"/>
<path d="M92.8352 29.9681V29.0876H92.2442C92.1956 29.1221 92.1454 29.1541 92.0943 29.1838C92.0313 29.2208 91.9665 29.2542 91.8993 29.2838C91.8175 29.3189 91.7221 29.3494 91.6131 29.3755C91.6012 29.3783 91.5884 29.3812 91.5765 29.384C91.5552 29.3887 91.5331 29.3933 91.5109 29.3977C91.3738 29.4433 91.2222 29.4661 91.0545 29.4661C90.7044 29.4661 90.4311 29.3826 90.2327 29.2155C90.185 29.1747 90.1424 29.1321 90.1058 29.0876H83.9782C83.9788 29.3952 84.0046 29.6887 84.0556 29.9681H92.8352Z" fill="#283841"/>
<path d="M83.2665 29.9681C83.3629 29.6898 83.4353 29.3963 83.4834 29.0876H77.6819C77.3774 29.2337 76.9916 29.3067 76.5246 29.3067H75.3603V29.0876H70.3385V29.9681H83.2665Z" fill="#283841"/>
<path d="M70.3363 30.8639C70.3302 31.1935 70.3109 31.4869 70.2783 31.7442H82.1376C82.37 31.5154 82.5761 31.2648 82.7563 30.9927C82.7849 30.9502 82.8128 30.9072 82.8399 30.8639H70.3363Z" fill="#283841"/>
<path d="M70.3385 28.1917H75.3603V27.3114H70.3385V28.1917Z" fill="#283841"/>
<path d="M70.3385 26.4156H75.3603V25.5353H70.3385V26.4156Z" fill="#283841"/>
<path d="M70.3385 24.6395H82.4786C82.2488 24.3292 81.9805 24.0358 81.674 23.759H70.3385V24.6395Z" fill="#283841"/>
<path d="M70.3385 22.8633H80.4429C79.8884 22.5397 79.2525 22.2462 78.5351 21.9829H70.3385V22.8633Z" fill="#283841"/>
<path d="M70.3385 21.087H75.5702L75.3603 21.0268V20.6487C75.3603 20.4941 75.3631 20.3467 75.3685 20.2067H70.3316C70.3362 20.3472 70.3385 20.4946 70.3385 20.6487V21.087Z" fill="#283841"/>
<path d="M84.3207 20.2067V21.087H93.6663C93.5752 20.7758 93.4534 20.4824 93.2993 20.2067H84.3207Z" fill="#283841"/>
<path d="M95.4224 20.2067C95.2725 20.4828 95.1456 20.7763 95.0417 21.087H107.328C107.223 20.7763 107.096 20.4828 106.946 20.2067H95.4224Z" fill="#283841"/>
<path d="M109.355 20.2067C109.36 20.3472 109.362 20.4946 109.362 20.6487V21.087H114.246V20.6487C114.246 20.4946 114.249 20.3472 114.253 20.2067H109.355Z" fill="#283841"/>
<path d="M114.326 19.3109H109.282C109.26 19.1583 109.233 19.0195 109.202 18.8944C109.157 18.7207 109.102 18.566 109.038 18.4304H114.571C114.506 18.566 114.452 18.7207 114.407 18.8944C114.375 19.0195 114.349 19.1583 114.326 19.3109Z" fill="#283841"/>
<path d="M120.882 20.2067C120.887 20.3472 120.889 20.4946 120.889 20.6487V21.087H125.752V20.6487C125.752 20.4946 125.753 20.3472 125.759 20.2067H120.882Z" fill="#283841"/>
<path d="M125.831 19.3109H120.81C120.788 19.1583 120.761 19.0195 120.73 18.8944C120.685 18.7207 120.628 18.566 120.561 18.4304H126.08C126.012 18.566 125.956 18.7207 125.911 18.8944C125.88 19.0195 125.853 19.1583 125.831 19.3109Z" fill="#283841"/>
<path d="M105.398 18.4304H96.9791C96.624 18.6864 96.3072 18.9799 96.0296 19.3109H106.349C106.073 18.9799 105.757 18.6864 105.398 18.4304Z" fill="#283841"/>
<path d="M125.752 21.9829H120.889V22.8633H125.752V21.9829Z" fill="#283841"/>
<path d="M125.752 23.759H120.889V24.6395H125.752V23.759Z" fill="#283841"/>
<path d="M125.752 25.5353H120.889V25.6284L120.794 25.5353H109.362V26.4156H125.752V25.5353Z" fill="#283841"/>
<path d="M125.752 27.3114H109.362V28.1917H125.752V27.3114Z" fill="#283841"/>
<path d="M107.69 28.1917V27.3114H102.691V28.1917H107.69Z" fill="#283841"/>
<path d="M99.7009 28.1917V27.3114H94.6789V28.1917H99.7009Z" fill="#283841"/>
<path d="M90.0402 28.1917C90.0683 28.1368 90.1024 28.0831 90.1415 28.0307C90.294 27.8636 90.5375 27.6433 90.8722 27.3699L90.9514 27.3114H84.337C84.2151 27.5978 84.1243 27.8913 84.0645 28.1917H90.0402Z" fill="#283841"/>
<path d="M83.5549 28.1917C83.5552 28.1685 83.5552 28.1452 83.5552 28.1218C83.5552 27.8436 83.5401 27.5735 83.5097 27.3114H78.4335C78.4696 27.4585 78.4877 27.6148 78.4877 27.78C78.4877 27.9278 78.4722 28.0651 78.4413 28.1917H83.5549Z" fill="#283841"/>
<path d="M77.871 26.4156H83.3381C83.2544 26.1094 83.1466 25.8159 83.0147 25.5353H75.8618L75.9996 25.5701C76.8501 25.7935 77.4739 26.0755 77.871 26.4156Z" fill="#283841"/>
<path d="M85.6544 25.5353C85.3435 25.8098 85.0744 26.1032 84.8474 26.4156H92.0798C92.3455 26.1672 92.5822 25.9082 92.7892 25.6384C92.8156 25.6042 92.8411 25.5699 92.8667 25.5353H85.6544Z" fill="#283841"/>
<path d="M94.6789 25.5353V26.4156H99.7009V25.5353H94.6789Z" fill="#283841"/>
<path d="M99.7009 24.6395H94.6789V23.759H99.7085C99.7034 23.836 99.7009 23.9155 99.7009 23.998V24.6395Z" fill="#283841"/>
<path d="M102.691 25.5353V26.4156H107.69V25.5353H102.691Z" fill="#283841"/>
<path d="M107.69 24.6395H102.691V23.998C102.691 23.9155 102.688 23.836 102.683 23.759H107.69V24.6395Z" fill="#283841"/>
<path d="M109.362 24.6395H114.246V23.759H109.362V24.6395Z" fill="#283841"/>
<path d="M109.362 22.8633H114.246V21.9829H109.362V22.8633Z" fill="#283841"/>
<path d="M107.558 21.9829H94.8118C94.759 22.2647 94.7223 22.5581 94.701 22.8633H99.941C99.9785 22.7962 100.02 22.734 100.066 22.6766C100.325 22.3728 100.697 22.2209 101.184 22.2209C101.672 22.2209 102.045 22.3728 102.303 22.6766C102.352 22.734 102.396 22.7962 102.435 22.8633H107.668C107.646 22.5581 107.61 22.2647 107.558 21.9829Z" fill="#283841"/>
<path d="M93.8529 22.8633C93.8588 22.7566 93.8622 22.6487 93.8622 22.5398C93.8622 22.3493 93.8537 22.1636 93.8358 21.9829H87.4019C87.5032 22.0288 87.5944 22.0854 87.6761 22.1526C87.9248 22.3456 88.061 22.5826 88.084 22.8633H93.8529Z" fill="#283841"/>
<path d="M87.7945 23.759C87.786 23.7704 87.7766 23.7816 87.7672 23.7929C87.5884 24.0104 87.2733 24.2927 86.8245 24.6395H93.3998C93.4705 24.4892 93.5335 24.336 93.588 24.1802C93.6374 24.042 93.68 23.9017 93.7157 23.759H87.7945Z" fill="#283841"/>
<path d="M85.6876 21.9829H84.3207V22.7677H84.5033L84.8457 22.4259C84.9674 22.3348 85.0967 22.2588 85.2337 22.1981C85.3716 22.1177 85.5232 22.046 85.6876 21.9829Z" fill="#283841"/>
<path d="M116.086 23.759L115.08 24.6395H119.881L118.983 23.759H116.086Z" fill="#283841"/>
<path d="M118.07 22.8632H117.109L117.557 22.4716H117.671L118.07 22.8632Z" fill="#283841"/>
<path d="M0.699684 20.2067H11.984V21.087H0.70752V20.6487C0.70752 20.4946 0.704919 20.3472 0.699684 20.2067Z" fill="#283841"/>
<path d="M129.644 0C129.36 0 129.099 0.0479256 128.864 0.143777C128.623 0.235941 128.415 0.368658 128.238 0.541927C128.06 0.71151 127.923 0.912424 127.827 1.14468C127.732 1.37694 127.683 1.63131 127.683 1.9078C127.683 2.1843 127.732 2.43867 127.827 2.67092C127.923 2.90318 128.06 3.10594 128.238 3.27921C128.415 3.44879 128.623 3.58151 128.864 3.67736C129.099 3.76952 129.36 3.81561 129.644 3.81561C129.925 3.81561 130.186 3.76952 130.426 3.67736C130.666 3.58151 130.874 3.44879 131.052 3.27921C131.229 3.10594 131.366 2.90318 131.462 2.67092C131.558 2.43867 131.606 2.1843 131.606 1.9078C131.606 1.63131 131.558 1.37694 131.462 1.14468C131.366 0.912424 131.229 0.71151 131.052 0.541927C130.874 0.368658 130.666 0.235941 130.426 0.143777C130.186 0.0479256 129.925 0 129.644 0ZM128.913 3.10779C128.703 2.9935 128.54 2.83314 128.426 2.62669C128.311 2.42024 128.254 2.18061 128.254 1.9078C128.254 1.63131 128.311 1.39168 128.426 1.18892C128.54 0.982473 128.703 0.822106 128.913 0.707823C129.12 0.593539 129.364 0.536397 129.644 0.536397C129.921 0.536397 130.166 0.593539 130.376 0.707823C130.583 0.822106 130.746 0.982473 130.863 1.18892C130.978 1.39168 131.035 1.63131 131.035 1.9078C131.035 2.18061 130.978 2.42024 130.863 2.62669C130.746 2.83314 130.583 2.9935 130.376 3.10779C130.166 3.22207 129.921 3.27921 129.644 3.27921C129.364 3.27921 129.12 3.22207 128.913 3.10779ZM129.063 1.58707H129.102C129.128 1.55758 129.164 1.53361 129.213 1.51518C129.246 1.50413 129.286 1.49859 129.334 1.49859C129.401 1.49859 129.462 1.51518 129.518 1.54836C129.569 1.58154 129.61 1.62578 129.639 1.68108C129.668 1.73638 129.684 1.8009 129.684 1.87462C129.684 1.9926 129.652 2.08845 129.589 2.16218C129.523 2.23591 129.436 2.27277 129.328 2.27277C129.273 2.27277 129.225 2.26171 129.185 2.2396C129.167 2.22854 129.15 2.21748 129.135 2.20641C129.116 2.19167 129.104 2.17877 129.096 2.1677H129.058V2.91977C129.091 2.93451 129.137 2.94557 129.196 2.95295C129.251 2.96032 129.311 2.96401 129.373 2.96401C129.602 2.96401 129.805 2.91977 129.983 2.83129C130.156 2.73913 130.293 2.61194 130.392 2.44973C130.493 2.28383 130.542 2.09398 130.542 1.88016C130.542 1.67002 130.496 1.48385 130.403 1.32164C130.311 1.15943 130.182 1.03408 130.016 0.945608C129.85 0.853443 129.661 0.807361 129.45 0.807361C129.399 0.807361 129.355 0.809203 129.317 0.81289C129.281 0.816576 129.248 0.81842 129.218 0.81842C129.162 0.81842 129.11 0.81289 129.063 0.801831V1.58707Z" fill="#283841"/>
<path fill-rule="evenodd" clip-rule="evenodd" d="M12.8036 13.2898C12.3927 12.2721 12.1873 11.1481 12.1873 9.91774C12.1873 8.68745 12.3927 7.56344 12.8036 6.54577C13.2296 5.5281 13.8232 4.64713 14.584 3.90287C15.3602 3.1586 16.2656 2.58141 17.3004 2.17131C18.3505 1.76121 19.507 1.55615 20.7702 1.55615C22.018 1.55615 23.167 1.76121 24.2171 2.17131C25.2671 2.58141 26.1725 3.1586 26.9335 3.90287C27.6943 4.64713 28.2802 5.5281 28.6911 6.54577C29.1172 7.56344 29.3302 8.68745 29.3302 9.91774C29.3302 11.1481 29.1172 12.2721 28.6911 13.2898C28.2802 14.3074 27.6943 15.1883 26.9335 15.9327C26.1725 16.6769 25.2671 17.2541 24.2171 17.6642C23.167 18.0743 22.018 18.2794 20.7702 18.2794C19.507 18.2794 18.3505 18.0743 17.3004 17.6642C16.2656 17.2541 15.3602 16.6769 14.584 15.9327C13.8232 15.1883 13.2296 14.3074 12.8036 13.2898ZM24.08 9.91774C24.08 9.2646 23.9355 8.68745 23.6463 8.18619C23.3724 7.68496 22.9844 7.29004 22.4822 7.00145C21.9952 6.71286 21.4245 6.56856 20.7702 6.56856C20.1158 6.56856 19.5375 6.71286 19.0353 7.00145C18.5331 7.29004 18.1375 7.68496 17.8483 8.18619C17.5744 8.68745 17.4375 9.2646 17.4375 9.91774C17.4375 10.5557 17.5744 11.1329 17.8483 11.6493C18.1375 12.1505 18.5331 12.5454 19.0353 12.8341C19.5375 13.1227 20.1158 13.267 20.7702 13.267C21.4245 13.267 21.9952 13.1227 22.4822 12.8341C22.9844 12.5454 23.3724 12.1505 23.6463 11.6493C23.9355 11.1329 24.08 10.5557 24.08 9.91774Z" fill="#283841"/>
<path d="M9.08509 13.3125H5.72955V4.92812C5.72955 4.15347 5.79803 3.5611 5.93499 3.15099C6.07196 2.74088 6.25457 2.4447 6.48284 2.26243V2.05737H0.0684807V2.26243C0.281531 2.45989 0.44132 2.77126 0.547845 3.19656C0.654371 3.60667 0.707634 4.18385 0.707634 4.92812V14.9074C0.707634 15.6517 0.646762 16.2364 0.525019 16.6617C0.418493 17.0718 0.243487 17.3756 0 17.5731V17.7781H9.99819C10.3634 17.7781 10.721 17.7933 11.0711 17.8237C11.4211 17.8541 11.7254 17.9072 11.9842 17.9831V12.6062H11.8015C11.5885 12.8492 11.2689 13.0315 10.8427 13.153C10.4319 13.2593 9.84601 13.3125 9.08509 13.3125Z" fill="#283841"/>
<path d="M39.4137 9.96328C39.5202 10.3734 39.5734 10.9582 39.5734 11.7177V13.492C39.4827 13.4938 39.3914 13.4948 39.2996 13.4948C38.5234 13.4948 37.8462 13.3581 37.2679 13.0847C36.7049 12.7961 36.2636 12.3936 35.9439 11.8771C35.6397 11.3456 35.4875 10.7303 35.4875 10.0316C35.4875 9.28736 35.6548 8.64944 35.9897 8.11783C36.3244 7.58621 36.819 7.1837 37.4734 6.9103C38.143 6.6217 38.9571 6.47741 39.9159 6.47741C40.3115 6.47741 40.6615 6.50019 40.9659 6.54576C41.2854 6.59133 41.5746 6.65967 41.8334 6.75081C42.0312 6.81157 42.2213 6.89511 42.404 7.00143C42.6018 7.09257 42.7769 7.20649 42.929 7.34318H43.1344V1.76119C42.7997 1.86751 42.4648 1.92068 42.1301 1.92068C41.9018 1.92068 41.5746 1.8903 41.1485 1.82954C40.7376 1.76878 40.2583 1.7384 39.7105 1.7384C37.7473 1.7384 36.0581 2.06497 34.6428 2.7181C33.2275 3.37124 32.1395 4.31296 31.3786 5.54328C30.6177 6.77359 30.2373 8.26213 30.2373 10.0088C30.2373 11.6341 30.6177 13.0543 31.3786 14.2694C32.1395 15.4845 33.1971 16.4263 34.5516 17.0946C35.9211 17.7629 37.5114 18.0971 39.3224 18.0971C40.3115 18.0971 41.2855 18.0288 42.2442 17.892C43.2029 17.7553 44.0932 17.5427 44.9149 17.2541V17.0491C44.6867 16.8667 44.5193 16.6086 44.4127 16.2744C44.3063 15.9402 44.253 15.4162 44.253 14.7023V11.7177C44.253 10.9582 44.3063 10.3734 44.4127 9.96328C44.5193 9.53803 44.6867 9.22667 44.9149 9.02922V8.82411H38.9343V9.02922C39.1474 9.22667 39.3071 9.53803 39.4137 9.96328Z" fill="#283841"/>
<path fill-rule="evenodd" clip-rule="evenodd" d="M45.7519 13.2898C45.341 12.2721 45.1356 11.1481 45.1356 9.91774C45.1356 8.68745 45.341 7.56344 45.7519 6.54577C46.1779 5.5281 46.7715 4.64713 47.5323 3.90287C48.3085 3.1586 49.2139 2.58141 50.2487 2.17131C51.2988 1.76121 52.4553 1.55615 53.7185 1.55615C54.9663 1.55615 56.1153 1.76121 57.1654 2.17131C58.2153 2.58141 59.1208 3.1586 59.8817 3.90287C60.6426 4.64713 61.2285 5.5281 61.6394 6.54577C62.0655 7.56344 62.2785 8.68745 62.2785 9.91774C62.2785 11.1481 62.0655 12.2721 61.6394 13.2898C61.2285 14.3074 60.6426 15.1883 59.8817 15.9327C59.1208 16.6769 58.2153 17.2541 57.1654 17.6642C56.1153 18.0743 54.9663 18.2794 53.7185 18.2794C52.4553 18.2794 51.2988 18.0743 50.2487 17.6642C49.2139 17.2541 48.3085 16.6769 47.5323 15.9327C46.7715 15.1883 46.1779 14.3074 45.7519 13.2898ZM57.0283 9.91774C57.0283 9.2646 56.8838 8.68745 56.5946 8.18619C56.3207 7.68496 55.9326 7.29004 55.4305 7.00145C54.9435 6.71286 54.3728 6.56856 53.7185 6.56856C53.0641 6.56856 52.4858 6.71286 51.9836 7.00145C51.4814 7.29004 51.0858 7.68496 50.7966 8.18619C50.5227 8.68745 50.3858 9.2646 50.3858 9.91774C50.3858 10.5557 50.5227 11.1329 50.7966 11.6493C51.0858 12.1505 51.4814 12.5454 51.9836 12.8341C52.4858 13.1227 53.0641 13.267 53.7185 13.267C54.3728 13.267 54.9435 13.1227 55.4305 12.8341C55.9326 12.5454 56.3207 12.1505 56.5946 11.6493C56.8838 11.1329 57.0283 10.5557 57.0283 9.91774Z" fill="#283841"/>
<path d="M63.3682 3.19656C63.4747 3.60667 63.5279 4.18385 63.5279 4.92812V14.9074C63.5279 15.6517 63.4747 16.2364 63.3682 16.6617C63.2616 17.0718 63.1019 17.3756 62.8888 17.5731V17.7781H69.189V17.5731C68.9759 17.3756 68.8162 17.0718 68.7097 16.6617C68.6031 16.2364 68.5499 15.6517 68.5499 14.9074V4.92812C68.5499 4.18385 68.6031 3.60667 68.7097 3.19656C68.8162 2.77126 68.9759 2.45989 69.189 2.26243V2.05737H62.8888V2.26243C63.1019 2.45989 63.2616 2.77126 63.3682 3.19656Z" fill="#283841"/>
<path fill-rule="evenodd" clip-rule="evenodd" d="M75.5659 16.6845C75.7029 17.0946 75.8855 17.3908 76.1138 17.5731V17.7781H69.6994V17.5731C69.9125 17.3756 70.0723 17.0718 70.1788 16.6617C70.2853 16.2364 70.3386 15.6517 70.3386 14.9074V4.92812C70.3386 4.18385 70.2777 3.60667 70.156 3.19656C70.0494 2.77126 69.8744 2.45989 69.631 2.26243V2.05737H76.9584C78.328 2.05737 79.4998 2.27762 80.4738 2.7181C81.4629 3.1434 82.2238 3.75855 82.7564 4.56358C83.289 5.35341 83.5553 6.31032 83.5553 7.43432C83.5553 8.51276 83.3271 9.46969 82.8705 10.3051C82.414 11.1404 81.714 11.8696 80.7705 12.4923C79.827 13.0999 78.6172 13.6087 77.141 14.0188L75.3605 14.5292V14.9074C75.3605 15.682 75.429 16.2744 75.5659 16.6845ZM75.9996 9.98606L75.3605 10.1479V6.24957H76.5247C77.1638 6.24957 77.6508 6.38627 77.9856 6.65967C78.3204 6.91789 78.4878 7.29002 78.4878 7.77608C78.4878 8.32288 78.29 8.77099 77.8943 9.12034C77.4987 9.46969 76.8671 9.75826 75.9996 9.98606Z" fill="#283841"/>
<path d="M92.6529 6.77357H92.8352V1.85229C92.5311 1.95862 92.2493 2.01178 91.9904 2.01178C91.8234 2.01178 91.5722 1.989 91.2375 1.94343C90.9029 1.89786 90.5299 1.87508 90.1185 1.87508C88.1709 1.87508 86.6567 2.29278 85.576 3.12819C84.511 3.94839 83.9784 5.06479 83.9784 6.47738C83.9784 7.20646 84.1457 7.89756 84.4806 8.55073C84.8154 9.18865 85.3027 9.75824 85.9414 10.2595L86.5579 10.7152C87.1515 11.1556 87.5543 11.505 87.7672 11.7632C87.981 12.0214 88.0874 12.3024 88.0874 12.6062C88.0874 12.9252 87.9503 13.191 87.6761 13.4036C87.4172 13.6163 87.0604 13.7226 86.6031 13.7226C86.345 13.7226 86.0938 13.6922 85.8502 13.6314C85.622 13.5555 85.4168 13.4644 85.2337 13.3581C85.0969 13.2973 84.9675 13.2213 84.8458 13.1302L84.5034 12.7885H84.3207V17.5958C84.6251 17.7022 85.0741 17.7856 85.6671 17.8464C86.276 17.9224 86.8696 17.9603 87.4479 17.9603C89.5028 17.9603 91.0851 17.5198 92.1965 16.6389C93.307 15.7427 93.8622 14.5352 93.8622 13.0163C93.8622 12.4391 93.7711 11.8923 93.5888 11.3759C93.4058 10.8594 93.1392 10.3734 92.7892 9.9177C92.4392 9.46201 92.0057 9.03676 91.4888 8.64185L90.8722 8.18615C90.5375 7.91275 90.294 7.69251 90.1415 7.52543C90.0044 7.34316 89.9363 7.1457 89.9363 6.93306C89.9363 6.70522 90.0351 6.50776 90.2326 6.34068C90.4311 6.1736 90.7044 6.09006 91.0544 6.09006C91.2222 6.09006 91.3747 6.11284 91.5109 6.15841C91.6633 6.18879 91.7928 6.22676 91.8992 6.27233C92.0364 6.33309 92.1658 6.40903 92.2876 6.50016C92.4247 6.57611 92.5465 6.66725 92.6529 6.77357Z" fill="#283841"/>
<path d="M94.6789 4.92812C94.6789 4.18385 94.6261 3.60667 94.5188 3.19656C94.4124 2.77126 94.2531 2.45989 94.0402 2.26243V2.05737H100.317V2.26243C100.105 2.45989 99.9445 2.77126 99.838 3.19656C99.7469 3.60667 99.7009 4.18385 99.7009 4.92812V11.5581C99.7009 12.1354 99.8227 12.5758 100.066 12.8796C100.325 13.1834 100.698 13.3353 101.184 13.3353C101.672 13.3353 102.045 13.1834 102.303 12.8796C102.562 12.5758 102.691 12.1354 102.691 11.5581V4.92812C102.691 4.18385 102.638 3.60667 102.532 3.19656C102.441 2.77126 102.28 2.45989 102.052 2.26243V2.05737H108.352V2.26243C108.124 2.45989 107.956 2.77126 107.85 3.19656C107.744 3.60667 107.691 4.18385 107.691 4.92812V12.0366C107.691 13.3581 107.432 14.4821 106.914 15.4086C106.412 16.3351 105.674 17.0491 104.7 17.5503C103.741 18.0363 102.569 18.2793 101.184 18.2793C99.815 18.2793 98.6432 18.0363 97.6689 17.5503C96.7109 17.0491 95.9725 16.3351 95.4547 15.4086C94.9378 14.4821 94.6789 13.3581 94.6789 12.0366V4.92812Z" fill="#283841"/>
<path d="M109.179 3.21934C109.301 3.65983 109.362 4.30537 109.362 5.15595V14.9074C109.362 15.6517 109.309 16.2364 109.202 16.6617C109.096 17.0718 108.936 17.3756 108.723 17.5731V17.7781H114.886V17.5731C114.673 17.3756 114.513 17.0718 114.407 16.6617C114.3 16.2364 114.246 15.6517 114.246 14.9074V10.1874L117.557 13.0847H117.671L120.89 9.92784V14.9074C120.89 15.6517 120.836 16.2364 120.73 16.6617C120.623 17.0718 120.456 17.3756 120.227 17.5731V17.7781H126.413V17.5731C126.185 17.3756 126.018 17.0718 125.911 16.6617C125.805 16.2364 125.752 15.6517 125.752 14.9074V5.15595C125.752 4.30537 125.812 3.65983 125.934 3.21934C126.071 2.77886 126.261 2.45989 126.505 2.26243V2.05737H121.072V2.21686C121.27 2.5814 121.331 2.95354 121.254 3.33327C121.179 3.6978 120.95 4.06234 120.57 4.42688L117.66 7.34686L114.612 4.38131C114.232 4.00158 114.004 3.63705 113.927 3.2877C113.851 2.92316 113.912 2.56621 114.11 2.21686V2.05737H108.609V2.26243C108.868 2.45989 109.058 2.77886 109.179 3.21934Z" fill="#283841"/>
</g>
<defs>
<clipPath id="clip0_281_673">
<rect width="132" height="34" fill="white"/>
</clipPath>
</defs>
</svg>
