<svg width="132" height="32" viewBox="0 0 132 32" fill="none" xmlns="http://www.w3.org/2000/svg">
<g clip-path="url(#clip0_281_824)">
<path fill-rule="evenodd" clip-rule="evenodd" d="M7.82221 2V32H0V2H7.82221Z" fill="#283841"/>
<path fill-rule="evenodd" clip-rule="evenodd" d="M11.7333 2H28.3555C33.7556 2 38.1333 6.47715 38.1333 12C38.1333 17.5229 33.7556 22 28.3555 22H19.5555V32H11.7333V2ZM19.5555 14H28.3555C29.4356 14 30.3111 13.1046 30.3111 12C30.3111 10.8954 29.4356 10 28.3555 10H19.5555V14Z" fill="#283841"/>
<path fill-rule="evenodd" clip-rule="evenodd" d="M67.4667 2V17.5C67.4667 21.0898 70.3122 24 73.8223 24C77.3324 24 80.178 21.0898 80.178 17.5V2H88.0003V17.5C88.0003 25.5082 81.6526 32 73.8223 32C65.9921 32 59.6445 25.5082 59.6445 17.5V2H67.4667Z" fill="#283841"/>
<path fill-rule="evenodd" clip-rule="evenodd" d="M41.0667 16C41.0667 8.268 47.1954 2 54.7556 2H56.7111V10H54.7556C51.5155 10 48.8889 12.6863 48.8889 16V17C48.8889 25.2842 42.3224 32 34.2222 32H33.2445V24H34.2222C38.0024 24 41.0667 20.866 41.0667 17V16Z" fill="#283841"/>
<path d="M132 3C132 4.65686 130.687 6 129.066 6C127.446 6 126.133 4.65686 126.133 3C126.133 1.34314 127.446 0 129.066 0C130.687 0 132 1.34314 132 3Z" fill="#283841"/>
<path d="M96.399 32L100.132 16.0144L102.907 25.6314C104.561 31.3672 112.505 31.3672 114.16 25.6314L116.935 16.0144L120.667 32H128.709L122.84 6.86355C121.445 0.885908 113.208 0.664581 111.507 6.55908L108.534 16.8666L105.559 6.55909C103.859 0.664616 95.6219 0.885876 94.2261 6.86354L88.3572 32H96.399Z" fill="#283841"/>
</g>
<defs>
<clipPath id="clip0_281_824">
<rect width="132" height="32" fill="white"/>
</clipPath>
</defs>
</svg>
