<svg width="971" height="151" viewBox="0 0 971 151" fill="none" xmlns="http://www.w3.org/2000/svg">
<path d="M69.9219 150.195C56.5755 150.195 44.6289 147.233 34.082 141.309C23.6003 135.319 15.2995 126.725 9.17969 115.527C3.0599 104.329 0 90.8854 0 75.1953C0 59.375 3.0599 45.8659 9.17969 34.668C15.2995 23.4049 23.6003 14.8112 34.082 8.88672C44.6289 2.96224 56.5755 0 69.9219 0C81.7708 0 92.3828 2.3112 101.758 6.93359C111.133 11.4909 118.75 17.9362 124.609 26.2695C130.534 34.5378 134.212 44.2383 135.645 55.3711H100.195C98.6979 47.5586 95.3125 41.5039 90.0391 37.207C84.8307 32.8451 78.3203 30.6641 70.5078 30.6641C59.3099 30.6641 50.651 34.6354 44.5312 42.5781C38.4115 50.4557 35.3516 61.3281 35.3516 75.1953C35.3516 88.9974 38.3789 99.8372 44.4336 107.715C50.5534 115.592 59.2448 119.531 70.5078 119.531C78.3203 119.531 84.8307 117.383 90.0391 113.086C95.3125 108.789 98.7305 102.767 100.293 95.0195H135.645C134.147 106.152 130.436 115.853 124.512 124.121C118.652 132.389 111.035 138.802 101.66 143.359C92.3503 147.917 81.7708 150.195 69.9219 150.195ZM149.805 147.852V2.34375H209.766C221.029 2.34375 230.762 4.36198 238.965 8.39844C247.168 12.3698 253.483 18.0339 257.91 25.3906C262.402 32.7474 264.648 41.4714 264.648 51.5625C264.648 60.8724 262.533 69.0104 258.301 75.9766C254.069 82.9427 248.145 88.4115 240.527 92.3828L268.457 147.852H231.348L207.617 99.5117H184.961V147.852H149.805ZM184.961 71.875H207.422C214.453 71.875 220.02 70.0195 224.121 66.3086C228.223 62.5977 230.273 57.6823 230.273 51.5625C230.273 45.3776 228.223 40.4297 224.121 36.7188C220.02 33.0078 214.421 31.1523 207.324 31.1523H184.961V71.875ZM281.445 147.852V2.34375H389.844V32.2266H316.602V60.2539H384.277V89.2578H316.602V117.969H389.844V147.852H281.445ZM396.387 147.852L446.387 2.34375H492.676L542.969 147.852H503.711L495.117 119.824H443.457L434.57 147.852H396.387ZM452.246 92.3828H486.621L483.984 83.8867C481.576 75.7487 479.167 67.6107 476.758 59.4727C474.414 51.3346 472.038 42.806 469.629 33.8867C467.155 42.806 464.714 51.3346 462.305 59.4727C459.896 67.6107 457.422 75.7487 454.883 83.8867L452.246 92.3828ZM528.125 32.2266V2.34375H648.926V32.2266H606.152V147.852H570.996V32.2266H528.125ZM697.656 2.34375V147.852H662.5V2.34375H697.656ZM757.52 147.852L707.52 2.34375H745.898L766.309 66.3086C768.717 74.056 771.094 82.0312 773.438 90.2344C775.781 98.3724 778.19 106.771 780.664 115.43C783.008 106.771 785.286 98.3724 787.5 90.2344C789.779 82.0312 792.057 74.056 794.336 66.3086L813.965 2.34375H851.953L803.223 147.852H757.52ZM861.719 147.852V2.34375H970.117V32.2266H896.875V60.2539H964.551V89.2578H896.875V117.969H970.117V147.852H861.719Z" fill="#7A7877"/>
</svg>
