<svg width="45" height="45" viewBox="0 0 45 45" fill="none" xmlns="http://www.w3.org/2000/svg">
<g clip-path="url(#clip0_310_700)">
<mask id="mask0_310_700" style="mask-type:luminance" maskUnits="userSpaceOnUse" x="9" y="9" width="27" height="27">
<path d="M35.591 9.40918H9.40918V35.591H35.591V9.40918Z" fill="white"/>
</mask>
<g mask="url(#mask0_310_700)">
<path d="M23.3194 13.2454C21.5789 11.5413 18.7573 11.5413 17.0169 13.2454L10.7144 19.4165C8.97409 21.1206 8.97409 23.8834 10.7144 25.5876L17.0169 31.7587C18.7573 33.4628 21.5789 33.4628 23.3194 31.7587L26.3264 28.8142C23.8231 27.8686 22.0471 25.4899 22.0471 22.7053C22.0471 19.8096 23.9674 17.353 26.6291 16.4902C26.577 16.4366 26.5242 16.3835 26.4705 16.3309L23.3194 13.2454Z" fill="#875BF7"/>
<path d="M26.3267 28.8161C27.073 29.098 27.8839 29.2525 28.7317 29.2525C32.4235 29.2525 35.4164 26.322 35.4164 22.7071C35.4164 19.0921 32.4235 16.1616 28.7317 16.1616C27.9972 16.1616 27.2904 16.2776 26.6293 16.4918C29.9507 19.9109 29.8979 25.3193 26.4708 28.6749L26.3267 28.8161Z" fill="#EE46BC"/>
</g>
</g>
<rect x="0.5" y="0.5" width="44" height="44" rx="4.5" stroke="black"/>
<defs>
<clipPath id="clip0_310_700">
<rect width="45" height="45" rx="5" fill="white"/>
</clipPath>
</defs>
</svg>
