<svg width="45" height="45" viewBox="0 0 45 45" fill="none" xmlns="http://www.w3.org/2000/svg">
<g clip-path="url(#clip0_310_686)">
<mask id="mask0_310_686" style="mask-type:luminance" maskUnits="userSpaceOnUse" x="9" y="9" width="27" height="27">
<path d="M35.591 9.40918H9.40918V35.591H35.591V9.40918Z" fill="white"/>
</mask>
<g mask="url(#mask0_310_686)">
<path d="M24.7827 29.029C22.7457 28.3066 20.6504 28.1955 18.7297 28.6956C17.391 29.029 16.1106 29.6958 14.9466 30.5293L14.1317 31.1961L13.8989 31.4184L14.4227 31.863C14.481 31.863 14.481 31.9185 14.5392 31.9741C14.6556 32.0853 14.772 32.1408 14.9466 32.2519L15.2958 32.4741L15.645 32.1964C15.7032 32.1408 15.8196 32.0297 15.936 31.9741C16.9836 31.1406 18.1477 30.585 19.3699 30.3071C20.9414 29.9181 22.6293 29.9737 24.3171 30.585C25.714 31.085 28.5659 31.6962 31.9998 30.3071L32.1162 30.2515L32.2908 30.0848C32.2908 30.0292 32.349 30.0293 32.4073 29.9737C32.6982 29.6403 32.9892 29.3069 33.2221 28.9179L34.386 27.1953L32.5236 28.1955C29.7881 29.6402 27.2854 29.9181 24.7827 29.029Z" fill="#155EEF"/>
<path d="M17.1742 22.7225C18.7457 22.3336 20.4336 22.3892 22.1215 23.0004C23.984 23.6672 28.7565 24.6118 34.1111 19.9997L35.2752 18.8884L35.1587 18.6105C35.1005 18.3883 34.9841 18.1104 34.8677 17.8326L34.5767 17.0547L33.9947 17.6103C33.9365 17.7215 33.8202 17.7771 33.7036 17.8882C31.1428 20.3887 27.185 22.9448 22.6453 21.3889C20.6082 20.6666 18.513 20.5554 16.5923 21.0555C14.7298 21.5556 13.1001 22.5003 11.5869 23.8339V23.7783L10.7138 24.6674C10.7138 24.7229 10.6556 24.7229 10.5975 24.7785L10.4229 24.9452L10.481 25.1675C10.5392 25.4453 10.6556 25.7232 10.7138 26.001L11.0631 26.8901L11.6451 26.1677C11.7033 26.0566 11.8197 26.001 11.8779 25.8899C13.1001 24.834 14.788 23.3337 17.1742 22.7225Z" fill="#155EEF"/>
<path d="M11.1632 22.0276C12.5019 20.6939 14.0151 19.8605 15.6448 19.4159C17.2163 19.0269 18.9041 19.0824 20.592 19.6937C25.8302 21.5274 30.37 18.5268 32.3488 16.9153L33.1054 16.193L33.3965 15.9707L33.1637 15.6372C32.9891 15.4706 32.8726 15.2484 32.698 15.0261L32.3488 14.5815L31.9414 14.9704C31.8832 15.0261 31.7669 15.1372 31.7085 15.1928C29.264 17.4155 25.4809 19.6937 21.174 18.1379C19.1369 17.4155 17.0417 17.3043 15.1209 17.8044C13.8987 18.1379 12.7347 18.6935 11.5706 19.4159L10.3484 20.3605C10.232 20.4716 10.1738 20.5273 10.0574 20.6384L9.94096 20.7495V20.9162C9.88279 21.3052 9.88278 21.6941 9.82461 22.0276L9.76636 23.4168L10.7558 22.4165C10.8722 22.3053 10.9886 22.1387 11.1632 22.0276Z" fill="#155EEF"/>
<path d="M26.4709 32.8075C26.2963 32.7519 26.1798 32.6963 26.0052 32.6407C23.9681 31.9184 21.8729 31.8073 19.9522 32.3074C19.5448 32.4185 19.1374 32.5296 18.73 32.6964L17.3331 33.3076L16.9839 33.4743L18.1479 33.8633C18.4972 33.9744 18.8463 34.0856 19.1956 34.1967L19.3702 34.2522L19.5448 34.1967C19.7194 34.1411 19.894 34.0299 20.0686 34.0299C20.185 34.0299 20.3014 33.9744 20.4178 33.9188C21.8147 33.5854 23.3279 33.5854 24.9576 34.0855C25.1322 34.1411 25.2486 34.1967 25.4232 34.2522L25.7142 34.3634L25.8888 34.3079C26.2963 34.1967 26.7618 34.0856 27.1111 33.9188L28.7408 33.3632L27.0528 32.9742C26.8782 32.9186 26.6454 32.863 26.4709 32.8075Z" fill="#155EEF"/>
<path d="M35.3757 21.3052L34.5027 22.1387C34.3863 22.2498 34.2699 22.361 34.1535 22.4721C31.7672 24.6392 27.9259 26.973 23.6189 25.4171C21.5818 24.6947 19.4866 24.5836 17.5659 25.0838C15.7616 25.5839 14.132 26.473 12.6769 27.8065L11.9203 28.5845L11.6875 28.8623L11.9203 29.1957C12.0949 29.418 12.2113 29.5847 12.3277 29.807L12.6769 30.3071L13.0843 29.807C13.1426 29.7514 13.2589 29.6402 13.3172 29.5847C14.714 28.1399 16.2272 27.2509 17.9733 26.8063C19.5447 26.4173 21.2327 26.473 22.9205 27.0842C24.3755 27.5842 25.8888 27.751 27.4021 27.5842C30.0793 27.3065 32.7567 25.8617 34.7355 24.2502C34.8519 24.1391 34.9683 24.0836 35.0847 23.9724L35.2593 23.8057V23.639C35.2593 23.3055 35.3176 22.9166 35.3176 22.5832L35.3757 21.3052Z" fill="#155EEF"/>
<path d="M13.2579 16.1934C13.6071 16.0267 14.0144 15.9155 14.3637 15.8044C15.9351 15.4154 17.623 15.4709 19.3109 16.0822C20.4167 16.4712 21.5226 16.6379 22.7448 16.6379C25.1892 16.6379 27.6337 15.8044 29.9037 14.1929L31.0676 13.3038L30.5439 12.9149C30.3693 12.7482 30.1365 12.5815 29.9037 12.4703L29.5544 12.248L29.2634 12.4703C29.147 12.5259 29.0889 12.637 28.9724 12.6926C25.8877 14.9153 22.803 15.5266 19.8929 14.4707C17.7975 13.7484 15.7023 13.5817 13.6071 14.1929C13.4325 14.2485 13.2579 14.3041 13.025 14.3596L12.9087 14.4152L12.734 14.5819C12.734 14.6375 12.6758 14.6375 12.6176 14.693C12.3848 15.0264 12.0938 15.3043 11.861 15.6377L10.7551 17.2492L12.5594 16.3601C12.8504 16.3601 13.0832 16.249 13.2579 16.1934Z" fill="#155EEF"/>
<path d="M18.0312 12.4144L18.2058 12.4699C18.9625 12.7478 20.1265 13.0256 21.5815 13.0256C23.0948 13.0256 24.5498 12.6922 26.0049 12.1365L27.8091 11.303L26.5869 10.9141C26.2377 10.8029 25.8885 10.6918 25.481 10.6362H25.3065L25.1319 10.6918C24.9573 10.7473 24.7826 10.8585 24.608 10.9141C22.862 11.5253 21.1159 11.6365 19.4281 11.1919C19.2534 11.1363 19.0788 11.0807 18.9042 11.0252L18.7296 10.9696L18.555 11.0252C18.2058 11.1363 17.8566 11.2475 17.5073 11.4142L16.1687 11.9699L17.5656 12.3588C17.6819 12.3033 17.8566 12.3588 18.0312 12.4144Z" fill="#155EEF"/>
</g>
</g>
<rect x="0.5" y="0.5" width="44" height="44" rx="4.5" stroke="black"/>
<defs>
<clipPath id="clip0_310_686">
<rect width="45" height="45" rx="5" fill="white"/>
</clipPath>
</defs>
</svg>
