<svg width="45" height="45" viewBox="0 0 45 45" fill="none" xmlns="http://www.w3.org/2000/svg">
<g clip-path="url(#clip0_310_709)">
<path fill-rule="evenodd" clip-rule="evenodd" d="M30.5559 13.9914L25.2061 12.5757C24.8368 12.478 24.5374 12.7048 24.5374 13.0825V18.5526C24.5374 18.9302 24.8368 19.3156 25.2061 19.4134L30.5559 20.8291C30.9251 20.9268 31.2246 20.6999 31.2246 20.3223V14.8522C31.2246 14.4746 30.9251 14.0892 30.5559 13.9914ZM25.2061 10.5244C23.7288 10.1335 22.5312 11.0411 22.5312 12.5516V18.0216C22.5312 19.5322 23.7288 21.0736 25.2061 21.4645L30.5559 22.8803C32.0331 23.2713 33.2308 22.3637 33.2308 20.8532V15.3832C33.2308 13.8726 32.0331 12.3311 30.5559 11.9402L25.2061 10.5244Z" fill="#8098F9"/>
<path fill-rule="evenodd" clip-rule="evenodd" d="M26.3558 18.4479L19.6685 16.6782C19.2992 16.5805 18.9998 16.8074 18.9998 17.185V24.0226C18.9998 24.4002 19.2992 24.7856 19.6685 24.8833L26.3558 26.6531C26.725 26.7508 27.0244 26.5239 27.0244 26.1463V19.3086C27.0244 18.931 26.725 18.5456 26.3558 18.4479ZM19.6685 14.6269C18.1913 14.236 16.9937 15.1436 16.9937 16.6541V23.4917C16.9937 25.0022 18.1913 26.5437 19.6685 26.9346L26.3558 28.7043C27.833 29.0952 29.0306 28.1877 29.0306 26.6772V19.8396C29.0306 18.329 27.833 16.7876 26.3558 16.3967L19.6685 14.6269Z" fill="#6172F3"/>
<path fill-rule="evenodd" clip-rule="evenodd" d="M22.1541 22.904L14.1295 20.7803C13.7601 20.6826 13.4608 20.9094 13.4608 21.2871V29.4922C13.4608 29.8698 13.7601 30.2552 14.1295 30.353L22.1541 32.4766C22.5234 32.5743 22.8228 32.3475 22.8228 31.9698V23.7647C22.8228 23.3871 22.5234 23.0017 22.1541 22.904ZM14.1295 18.729C12.6522 18.3381 11.4546 19.2457 11.4546 20.7562V28.9613C11.4546 30.4719 12.6522 32.0133 14.1295 32.4042L22.1541 34.5279C23.6313 34.9188 24.8289 34.0112 24.8289 32.5008V24.2956C24.8289 22.785 23.6313 21.2436 22.1541 20.8527L14.1295 18.729Z" fill="#444CE7"/>
</g>
<rect x="0.5" y="0.5" width="44" height="44" rx="4.5" stroke="black"/>
<defs>
<clipPath id="clip0_310_709">
<rect width="45" height="45" rx="5" fill="white"/>
</clipPath>
</defs>
</svg>
