<svg width="25" height="25" viewBox="0 0 25 25" fill="none" xmlns="http://www.w3.org/2000/svg">
<path d="M13.3594 12.5C13.3594 10.486 14.9516 8.85474 16.9141 8.85474C18.8781 8.85474 20.4688 10.4844 20.4688 12.5C20.4688 14.5141 18.8781 16.1454 16.9141 16.1454C14.9531 16.1454 13.3594 14.5157 13.3594 12.5Z" fill="#1ABCFE"/>
<path d="M6.25 19.7921C6.25 17.7781 7.84219 16.1453 9.80469 16.1453H13.3594V19.7921C13.3594 21.8046 11.7672 23.4375 9.80469 23.4375C7.84219 23.4375 6.25 21.8046 6.25 19.7921Z" fill="#0ACF83"/>
<path d="M13.3594 1.5625V8.85469H16.9141C18.8781 8.85469 20.4688 7.22187 20.4688 5.20781C20.4688 3.19531 18.8781 1.5625 16.9141 1.5625H13.3594Z" fill="#FF7262"/>
<path d="M6.25 5.20781C6.25 7.22187 7.84219 8.85469 9.80469 8.85469H13.3594V1.5625H9.80469C7.84219 1.5625 6.25 3.19531 6.25 5.20781Z" fill="#F24E1E"/>
<path d="M6.25 12.5C6.25 14.5141 7.84219 16.1454 9.80469 16.1454H13.3594V8.85474H9.80469C7.84219 8.85474 6.25 10.4844 6.25 12.5Z" fill="#A259FF"/>
</svg>
