<svg width="25" height="25" viewBox="0 0 25 25" fill="none" xmlns="http://www.w3.org/2000/svg">
<path d="M9.29297 18.0234C9.29297 18.1016 9.20312 18.1641 9.08984 18.1641C8.96094 18.1758 8.87109 18.1133 8.87109 18.0234C8.87109 17.9453 8.96094 17.8828 9.07422 17.8828C9.19141 17.8711 9.29297 17.9336 9.29297 18.0234ZM8.07812 17.8477C8.05078 17.9258 8.12891 18.0156 8.24609 18.0391C8.34766 18.0781 8.46484 18.0391 8.48828 17.9609C8.51172 17.8828 8.4375 17.793 8.32031 17.7578C8.21875 17.7305 8.10547 17.7695 8.07812 17.8477ZM9.80469 17.7812C9.69141 17.8086 9.61328 17.8828 9.625 17.9727C9.63672 18.0508 9.73828 18.1016 9.85547 18.0742C9.96875 18.0469 10.0469 17.9727 10.0352 17.8945C10.0234 17.8203 9.91797 17.7695 9.80469 17.7812ZM12.375 2.8125C6.95703 2.8125 2.8125 6.92578 2.8125 12.3438C2.8125 16.6758 5.53906 20.3828 9.43359 21.6875C9.93359 21.7773 10.1094 21.4688 10.1094 21.2148C10.1094 20.9727 10.0977 19.6367 10.0977 18.8164C10.0977 18.8164 7.36328 19.4023 6.78906 17.6523C6.78906 17.6523 6.34375 16.5156 5.70312 16.2227C5.70312 16.2227 4.80859 15.6094 5.76563 15.6211C5.76563 15.6211 6.73828 15.6992 7.27344 16.6289C8.12891 18.1367 9.5625 17.7031 10.1211 17.4453C10.2109 16.8203 10.4648 16.3867 10.7461 16.1289C8.5625 15.8867 6.35938 15.5703 6.35938 11.8125C6.35938 10.7383 6.65625 10.1992 7.28125 9.51172C7.17969 9.25781 6.84766 8.21094 7.38281 6.85938C8.19922 6.60547 10.0781 7.91406 10.0781 7.91406C10.8594 7.69531 11.6992 7.58203 12.5312 7.58203C13.3633 7.58203 14.2031 7.69531 14.9844 7.91406C14.9844 7.91406 16.8633 6.60156 17.6797 6.85938C18.2148 8.21484 17.8828 9.25781 17.7812 9.51172C18.4062 10.2031 18.7891 10.7422 18.7891 11.8125C18.7891 15.582 16.4883 15.8828 14.3047 16.1289C14.6641 16.4375 14.9688 17.0234 14.9688 17.9414C14.9688 19.2578 14.957 20.8867 14.957 21.207C14.957 21.4609 15.1367 21.7695 15.6328 21.6797C19.5391 20.3828 22.1875 16.6758 22.1875 12.3438C22.1875 6.92578 17.793 2.8125 12.375 2.8125ZM6.60938 16.2852C6.55859 16.3242 6.57031 16.4141 6.63672 16.4883C6.69922 16.5508 6.78906 16.5781 6.83984 16.5273C6.89062 16.4883 6.87891 16.3984 6.8125 16.3242C6.75 16.2617 6.66016 16.2344 6.60938 16.2852ZM6.1875 15.9688C6.16016 16.0195 6.19922 16.082 6.27734 16.1211C6.33984 16.1602 6.41797 16.1484 6.44531 16.0938C6.47266 16.043 6.43359 15.9805 6.35547 15.9414C6.27734 15.918 6.21484 15.9297 6.1875 15.9688ZM7.45312 17.3594C7.39062 17.4102 7.41406 17.5273 7.50391 17.6016C7.59375 17.6914 7.70703 17.7031 7.75781 17.6406C7.80859 17.5898 7.78516 17.4727 7.70703 17.3984C7.62109 17.3086 7.50391 17.2969 7.45312 17.3594ZM7.00781 16.7852C6.94531 16.8242 6.94531 16.9258 7.00781 17.0156C7.07031 17.1055 7.17578 17.1445 7.22656 17.1055C7.28906 17.0547 7.28906 16.9531 7.22656 16.8633C7.17188 16.7734 7.07031 16.7344 7.00781 16.7852Z" fill="white"/>
</svg>
