<svg xmlns="http://www.w3.org/2000/svg" width="100%" height="100%" viewBox="0 0 23 24" fill="none" preserveAspectRatio="xMidYMid meet" aria-hidden="true" role="img">
<g clip-path="url(#clip0_156_757)">
<path d="M17.7704 2.66647H16.8371V1.73314C16.8371 1.21794 16.4199 0.799805 15.9038 0.799805C15.3876 0.799805 14.9704 1.21794 14.9704 1.73314V2.66647H7.50378V1.73314C7.50378 1.21794 7.08564 0.799805 6.57044 0.799805C6.05524 0.799805 5.63711 1.21794 5.63711 1.73314V2.66647H4.70378C2.13058 2.66647 0.0371094 4.75994 0.0371094 7.33314V18.5331C0.0371094 21.1063 2.13058 23.1998 4.70378 23.1998H11.2371C11.7523 23.1998 12.1704 22.7817 12.1704 22.2665C12.1704 21.7513 11.7523 21.3331 11.2371 21.3331H4.70378C3.16004 21.3331 1.90378 20.0769 1.90378 18.5331V10.1331H20.5704V15.7331C20.5704 16.2483 20.9876 16.6665 21.5038 16.6665C22.0199 16.6665 22.4371 16.2483 22.4371 15.7331V7.33314C22.4371 4.75994 20.3436 2.66647 17.7704 2.66647ZM1.90378 8.26647V7.33314C1.90378 5.7894 3.16004 4.53314 4.70378 4.53314H17.7704C19.3142 4.53314 20.5704 5.7894 20.5704 7.33314V8.26647H1.90378ZM22.1244 20.3727C22.5407 20.789 22.5407 21.4647 22.1244 21.881L21.6372 22.441C21.123 22.9562 20.4454 23.1998 19.7706 23.1998C16.3042 23.1998 11.2371 18.3997 11.2371 14.6663C11.2371 13.9915 11.4807 13.3139 11.9959 12.7997L12.5559 12.3125C12.9722 11.8962 13.6479 11.8962 14.0642 12.3125L15.1916 13.5277C15.6079 13.9439 15.6079 14.6197 15.1916 15.0359L14.235 16.0029C15.0759 18.0973 16.502 19.4655 18.435 20.2029L19.4019 19.2462C19.8182 18.8299 20.4939 18.8299 20.9102 19.2462L22.1254 20.3737L22.1244 20.3727Z" fill="#4F4F4F"></path>
</g>
<defs>
<clipPath id="clip0_156_757">
<rect width="22.4" height="22.4" fill="white" transform="translate(0.0371094 0.799805)"></rect>
</clipPath>
</defs>
</svg>