<svg width="25" height="25" viewBox="0 0 25 25" fill="none" xmlns="http://www.w3.org/2000/svg">
<path d="M14.8128 22.5313C13.5837 22.5313 11.8441 21.6667 10.4691 17.5313L9.71908 15.2813L7.46908 14.5313C3.34408 13.1563 2.47949 11.4167 2.47949 10.1875C2.47949 8.96879 3.34408 7.21879 7.46908 5.83338L16.3128 2.88546C18.5212 2.14588 20.3649 2.36463 21.5003 3.48963C22.6358 4.61463 22.8545 6.46879 22.1149 8.67713L19.167 17.5209C17.7816 21.6667 16.042 22.5313 14.8128 22.5313ZM7.95866 7.32296C5.06283 8.29171 4.03158 9.43754 4.03158 10.1875C4.03158 10.9375 5.06283 12.0834 7.95866 13.0417L10.5837 13.9167C10.8128 13.9896 11.0003 14.1771 11.0733 14.4063L11.9483 17.0313C12.9066 19.9271 14.0628 20.9584 14.8128 20.9584C15.5628 20.9584 16.7087 19.9271 17.6774 17.0313L20.6253 8.18754C21.1566 6.58338 21.0628 5.27088 20.3858 4.59379C19.7087 3.91671 18.3962 3.83338 16.8024 4.36463L7.95866 7.32296Z" fill="black"/>
<path d="M10.5315 14.9999C10.3337 14.9999 10.1357 14.927 9.97949 14.7708C9.67741 14.4687 9.67741 13.9687 9.97949 13.6666L13.7086 9.927C14.0107 9.62492 14.5107 9.62492 14.8128 9.927C15.1149 10.2291 15.1149 10.7291 14.8128 11.0312L11.0836 14.7708C10.9378 14.927 10.7294 14.9999 10.5315 14.9999Z" fill="black"/>
</svg>
