<svg width="23" height="24" viewBox="0 0 23 24" fill="none" xmlns="http://www.w3.org/2000/svg">
<path d="M11.2371 3.5998C11.2371 2.05327 12.4906 0.799805 14.0371 0.799805C15.5836 0.799805 16.8371 2.05327 16.8371 3.5998C16.8371 2.05327 18.0906 0.799805 19.6371 0.799805C21.1836 0.799805 22.4371 2.05327 22.4371 3.5998C22.4371 6.0554 19.2722 8.6426 17.7014 9.84194C17.1918 10.2311 16.4824 10.2311 15.9738 9.84194C14.402 8.64354 11.238 6.0554 11.238 3.5998H11.2371ZM21.5038 10.1331C20.9886 10.1331 20.5704 10.5503 20.5704 11.0665V18.5331C20.5704 20.0769 19.3142 21.3331 17.7704 21.3331H4.70378C3.16004 21.3331 1.90378 20.0769 1.90378 18.5331V9.26607L7.93684 15.2991C8.84404 16.2063 10.034 16.6609 11.2278 16.6609C12.4299 16.6609 13.6348 16.2007 14.5588 15.2758L16.1502 13.5697C16.5011 13.1935 16.4806 12.6027 16.1044 12.2509C15.7274 11.8999 15.1375 11.9186 14.7847 12.2975L13.2158 13.9803C12.1238 15.0723 10.3476 15.0723 9.25564 13.9803L2.24071 6.96354C2.71111 6.0778 3.63324 5.46647 4.70378 5.46647H8.43711C8.95231 5.46647 9.37044 5.04927 9.37044 4.53314C9.37044 4.017 8.95231 3.5998 8.43711 3.5998H4.70378C2.13058 3.5998 0.0371094 5.69327 0.0371094 8.26647V18.5331C0.0371094 21.1063 2.13058 23.1998 4.70378 23.1998H17.7704C20.3436 23.1998 22.4371 21.1063 22.4371 18.5331V11.0665C22.4371 10.5503 22.019 10.1331 21.5038 10.1331Z" fill="#4F4F4F"></path>
</svg>