<svg width="640" height="640" viewBox="0 0 640 640" fill="none" xmlns="http://www.w3.org/2000/svg">
<path d="M208 342C275.423 342 330 396.577 330 464C330 531.423 275.423 586 208 586H64C40.7772 586 22 567.223 22 544C22 520.777 40.7772 502 64 502H68.7998C73.7172 502 78.3368 499.414 81.8584 494.521C85.4363 489.55 87.2962 482.882 86.6523 476.623V476.622C86.2163 472.471 86 468.23 86 464C86 396.577 140.577 342 208 342ZM546.6 54C586.022 54 618 85.9775 618 125.4C618 139.583 613.811 153.304 606.033 165.028L606.027 165.036L606.021 165.045L458.422 386.545L458.421 386.547C437.334 418.177 403.19 438.3 365.666 441.562L356.808 442.333L355.007 433.624C342.913 375.126 296.865 329.09 238.487 317.096L229.764 315.303L230.538 306.432C233.75 269.601 253.293 235.841 284.078 214.678L285.553 213.68L506.95 65.9814L506.961 65.9736L506.972 65.9668C518.703 58.1844 532.525 54.0001 546.6 54Z" stroke="black" stroke-width="20"/>
</svg>
