<svg width="25" height="25" viewBox="0 0 25 25" fill="none" xmlns="http://www.w3.org/2000/svg">
<path d="M12.5117 8.00781C10.0312 8 8.01562 10.0078 8.00781 12.4883C8 14.9688 10.0078 16.9844 12.4883 16.9922C14.9688 17 16.9844 14.9922 16.9922 12.5117C17 10.0312 14.9922 8.01562 12.5117 8.00781ZM12.4883 9.58594C14.0977 9.57812 15.4062 10.8789 15.4141 12.4883C15.4219 14.0977 14.1211 15.4062 12.5117 15.4141C10.9023 15.4219 9.59375 14.1211 9.58594 12.5117C9.57812 10.9023 10.8789 9.59375 12.4883 9.58594ZM16.1367 7.82422C16.1367 7.24609 16.6055 6.77734 17.1836 6.77734C17.7617 6.77734 18.2305 7.24609 18.2305 7.82422C18.2305 8.40234 17.7617 8.87109 17.1836 8.87109C16.6055 8.87109 16.1367 8.40234 16.1367 7.82422ZM21.2031 8.88672C21.1367 7.48437 20.8164 6.24219 19.7891 5.21875C18.7656 4.19531 17.5234 3.875 16.1211 3.80469C14.6758 3.72266 10.3438 3.72266 8.89844 3.80469C7.5 3.87109 6.25781 4.19141 5.23047 5.21484C4.20312 6.23828 3.88672 7.48047 3.81641 8.88281C3.73438 10.3281 3.73438 14.6602 3.81641 16.1055C3.88281 17.5078 4.20312 18.75 5.23047 19.7734C6.25781 20.7969 7.49609 21.1172 8.89844 21.1875C10.3438 21.2695 14.6758 21.2695 16.1211 21.1875C17.5234 21.1211 18.7656 20.8008 19.7891 19.7734C20.8125 18.75 21.1328 17.5078 21.2031 16.1055C21.2852 14.6602 21.2852 10.332 21.2031 8.88672ZM19.3359 17.6562C19.0312 18.4219 18.4414 19.0117 17.6719 19.3203C16.5195 19.7773 13.7852 19.6719 12.5117 19.6719C11.2383 19.6719 8.5 19.7734 7.35156 19.3203C6.58594 19.0156 5.99609 18.4258 5.6875 17.6562C5.23047 16.5039 5.33594 13.7695 5.33594 12.4961C5.33594 11.2227 5.23438 8.48437 5.6875 7.33594C5.99219 6.57031 6.58203 5.98047 7.35156 5.67187C8.50391 5.21484 11.2383 5.32031 12.5117 5.32031C13.7852 5.32031 16.5234 5.21875 17.6719 5.67187C18.4375 5.97656 19.0273 6.56641 19.3359 7.33594C19.793 8.48828 19.6875 11.2227 19.6875 12.4961C19.6875 13.7695 19.793 16.5078 19.3359 17.6562Z" fill="white"/>
</svg>
