<svg width="1816" height="864" viewBox="0 0 1816 864" fill="none" xmlns="http://www.w3.org/2000/svg">
<path d="M6.85254 73.785C239.981 -79.0144 389.67 95.9675 443.352 145.785C485.46 184.862 510.402 209.994 531.852 263.285C555.075 320.98 558.985 360.689 547.352 421.785C536.734 477.55 530.182 519.287 484.352 552.785C445.726 581.017 412.396 585.139 364.852 579.785C300.427 572.53 246.919 550.925 225.352 489.785C209.505 444.859 219.144 411.191 240.852 368.785C261.808 327.849 288.086 313.527 325.852 287.285C367.391 258.422 395.862 250.199 443.352 232.785C512.099 207.577 553.641 177.66 625.852 189.785C696.866 201.709 732.956 234.892 782.352 287.285C833.883 341.942 847.159 386.517 872.352 457.285C897.139 526.912 875.904 577.135 909.852 642.785C941.725 704.422 967.531 742.77 1029.35 774.285C1084.93 802.616 1126.62 812.046 1187.35 797.785C1255.26 781.839 1278.49 737.043 1328.85 688.785C1369.72 649.631 1370.63 597.576 1424.35 579.785C1472.14 563.959 1507.2 575.533 1551.85 598.785C1595.21 621.364 1611.15 648.508 1638.85 688.785C1660.13 719.724 1663.12 742.338 1682.85 774.285C1698.17 799.08 1701.85 818.749 1725.85 835.285C1754.75 855.191 1814.35 850.785 1814.35 850.785" stroke="url(#paint0_linear_570_27)" stroke-width="25"/>
<defs>
<linearGradient id="paint0_linear_570_27" x1="910.602" y1="12.4995" x2="910.602" y2="851.2" gradientUnits="userSpaceOnUse">
<stop stop-color="#FEBE58"/>
<stop offset="1" stop-color="#DE2BAE"/>
</linearGradient>
</defs>
</svg>
