<svg width="25" height="25" viewBox="0 0 25 25" fill="none" xmlns="http://www.w3.org/2000/svg">
<path d="M7.66797 20H4.03906V8.31641H7.66797V20ZM5.85156 6.72266C4.69141 6.72266 3.75 5.76172 3.75 4.60156C3.75 4.04297 3.97266 3.51172 4.36719 3.11719C4.76172 2.72266 5.29688 2.5 5.85156 2.5C6.40625 2.5 6.94141 2.72266 7.33594 3.11719C7.73047 3.51172 7.95312 4.04688 7.95312 4.60156C7.95312 5.76172 7.01172 6.72266 5.85156 6.72266ZM21.2461 20H17.625V14.3125C17.625 12.957 17.5977 11.2188 15.7383 11.2188C13.8516 11.2188 13.5625 12.6914 13.5625 14.2148V20H9.9375V8.31641H13.418V9.91016H13.4688C13.9531 8.99219 15.1367 8.02344 16.9023 8.02344C20.5742 8.02344 21.25 10.4414 21.25 13.582V20H21.2461Z" fill="white"/>
</svg>
