<svg width="130" height="47" viewBox="0 0 130 47" fill="none" xmlns="http://www.w3.org/2000/svg">
<path d="M12.9517 20.2335C12.9152 21.0903 12.897 22.1751 12.897 23.4877C12.897 24.8003 12.9152 25.8941 12.9517 26.7692C12.9881 27.6261 13.061 28.3097 13.1704 28.8202C13.298 29.3306 13.4712 29.6861 13.69 29.8867C13.927 30.0872 14.2369 30.1875 14.6198 30.1875C15.0026 30.1875 15.3034 30.0872 15.5222 29.8867C15.7592 29.6861 15.9324 29.3306 16.0418 28.8202C16.1694 28.3097 16.2514 27.6261 16.2879 26.7692C16.3244 25.8941 16.3426 24.8003 16.3426 23.4877C16.3426 22.1751 16.3244 21.0903 16.2879 20.2335C16.2514 19.3584 16.1694 18.6656 16.0418 18.1552C15.9324 17.6447 15.7592 17.2892 15.5222 17.0887C15.3034 16.8881 15.0026 16.7878 14.6198 16.7878C14.2369 16.7878 13.927 16.8881 13.69 17.0887C13.4712 17.2892 13.298 17.6447 13.1704 18.1552C13.061 18.6656 12.9881 19.3584 12.9517 20.2335Z" fill="black"/>
<path fill-rule="evenodd" clip-rule="evenodd" d="M13.9207 3.1733C7.32692 3.3144 2.08572 8.7556 2.19152 15.35L2.32152 23.4524L2.19152 31.5548C2.08572 38.1493 7.32692 43.5905 13.9207 43.7315L22.0243 43.9049L30.1279 43.7315C36.7217 43.5905 41.963 38.1493 41.8572 31.5548L41.7272 23.4524L41.8572 15.35C41.963 8.7556 36.7217 3.3144 30.1279 3.1733L22.0243 3L13.9207 3.1733ZM22.3043 33.7698L19.2415 36.4224L16.4522 33.4143C16.2334 33.4508 16.0146 33.4782 15.7959 33.4964C15.5953 33.5328 15.3674 33.5511 15.1122 33.5511H14.62C13.3256 33.5511 12.2317 33.3779 11.3384 33.0315C10.4451 32.6851 9.72502 32.1108 9.17812 31.3087C8.63122 30.4883 8.23922 29.44 8.00222 28.1639C7.76522 26.8695 7.64672 25.3107 7.64672 23.4877C7.64672 21.6646 7.76522 20.115 8.00222 18.8388C8.23922 17.5444 8.63122 16.4962 9.17812 15.694C9.72502 14.8736 10.4451 14.2811 11.3384 13.9165C12.2317 13.5336 13.3256 13.3422 14.62 13.3422C15.9144 13.3422 17.0082 13.5336 17.9015 13.9165C18.7948 14.2811 19.515 14.8736 20.0619 15.694C20.6088 16.4962 21.0008 17.5444 21.2378 18.8388C21.4748 20.115 21.5933 21.6646 21.5933 23.4877C21.5933 25.3654 21.4657 26.9515 21.2104 28.2459C20.9552 29.5403 20.5359 30.5977 19.9525 31.4181L22.3043 33.7698ZM30.9365 20.753V19.6592C30.9365 18.5471 30.8271 17.7905 30.6083 17.3895C30.3896 16.9884 30.0341 16.7878 29.5418 16.7878C29.159 16.7878 28.8491 16.8881 28.6121 17.0887C28.3933 17.2892 28.2201 17.6447 28.0925 18.1552C27.9831 18.6656 27.9102 19.3584 27.8737 20.2335C27.8372 21.0903 27.819 22.1751 27.819 23.4877C27.819 24.8003 27.8372 25.8941 27.8737 26.7692C27.9102 27.6261 27.9831 28.3097 28.0925 28.8202C28.2201 29.3306 28.3933 29.6861 28.6121 29.8867C28.8491 30.0872 29.159 30.1875 29.5418 30.1875C29.8517 30.1875 30.107 30.1146 30.3075 29.9687C30.5081 29.8046 30.663 29.5403 30.7724 29.1757C30.8818 28.8111 30.9547 28.3279 30.9912 27.7263C31.0459 27.1065 31.0732 26.3317 31.0732 25.4019H35.9955V26.8513C35.9955 28.2186 35.8132 29.3398 35.4486 30.2148C35.084 31.0899 34.6009 31.7827 33.9993 32.2931C33.3976 32.7854 32.7049 33.1135 31.9209 33.2776C31.1553 33.4599 30.3622 33.5511 29.5418 33.5511C28.1198 33.5511 26.9531 33.3779 26.0415 33.0315C25.13 32.6851 24.419 32.1108 23.9085 31.3087C23.398 30.4883 23.0425 29.44 22.842 28.1639C22.6597 26.8695 22.5685 25.3107 22.5685 23.4877C22.5685 21.6281 22.6779 20.0512 22.8967 18.7568C23.1337 17.4624 23.5257 16.4141 24.0726 15.612C24.6195 14.8098 25.3396 14.2355 26.2329 13.8891C27.1262 13.5245 28.2292 13.3422 29.5418 13.3422C30.6904 13.3422 31.6657 13.4881 32.4679 13.7798C33.27 14.0715 33.9172 14.4908 34.4095 15.0377C34.9199 15.5664 35.2845 16.2136 35.5033 16.9793C35.7403 17.7267 35.8588 18.5745 35.8588 19.5225V20.753H30.9365Z" fill="black"/>
<path fill-rule="evenodd" clip-rule="evenodd" d="M65.7551 16.9364L70.2133 21.5629L74.6715 16.9364H82.4172L74.0803 24.8676L82.4172 32.7987H74.6715L70.2133 28.1604L65.7551 32.7987H57.9976L66.3346 24.8676L57.9976 16.9364H65.7551ZM65.3253 24.8676L56.2578 16.2415H66.0515L70.2133 20.5604L74.3751 16.2415H83.8192V16.2297H99.8252C103.485 16.1923 106.583 19.2529 106.533 22.9252C106.532 24.2461 106.175 25.4637 105.46 26.5474C104.922 27.3677 104.24 28.0426 103.423 28.5558L106.836 32.9379V30.096C106.836 27.8694 108.5 26.4499 110.414 25.5085C112.347 24.5581 114.786 23.9643 116.817 23.4839L116.82 23.4832L116.843 23.4774C118.095 23.1695 119.161 22.9074 119.92 22.6247C120.304 22.4814 120.556 22.3517 120.7 22.2415C120.718 22.2275 120.733 22.2151 120.746 22.2044C120.702 22.164 120.612 22.1037 120.435 22.0342C120.022 21.8725 119.317 21.7507 118.249 21.7504C117.108 21.7622 116.138 21.855 115.476 22.0872C115.15 22.2017 114.953 22.3321 114.842 22.4545C114.748 22.5596 114.692 22.6843 114.697 22.8799L114.714 23.5915H107.084V22.8966C107.084 21.47 107.364 20.2772 107.924 19.2999C108.487 18.3182 109.307 17.6014 110.307 17.0873C112.269 16.0786 114.972 15.8284 117.986 15.8284C121.072 15.8284 123.634 16.1845 125.448 17.1013C126.366 17.5659 127.112 18.1842 127.625 18.9883C128.139 19.7945 128.391 20.7435 128.391 21.8226C128.391 23.8195 127.186 25.0914 125.709 25.9204C124.275 26.7253 122.47 27.1824 120.971 27.5481H128.131V33.4701H107.25L107.259 33.4819H98.8952L95.9032 29.6107H91.4082V33.4819H84.1442L84.1572 33.4937H74.3746L70.2133 29.1643L66.052 33.4937H56.2578L65.3253 24.8676ZM83.8192 33.1719V16.5632L75.0895 24.8676L83.8192 33.1719ZM96.2462 28.9158L99.2382 32.7869H105.836L102.371 28.3374C102.588 28.2369 102.795 28.1257 102.994 28.0041C103.752 27.5399 104.382 26.9232 104.878 26.1658C105.517 25.198 105.836 24.1122 105.836 22.9202C105.884 19.6391 103.105 16.8892 99.8292 16.9246H84.5152V32.7869H90.7112V28.9158H96.2462ZM117.324 28.243C117.541 27.9777 117.934 27.7521 118.456 27.5481C119.071 27.3073 119.863 27.0965 120.753 26.8858C123.804 26.1422 127.695 25.1272 127.695 21.8226C127.695 17.9514 124.1 16.5233 117.986 16.5233C112.237 16.5233 108.16 17.4599 107.806 22.2016C107.789 22.4248 107.78 22.6563 107.78 22.8966H114.001C114 22.8704 114 22.8446 114.001 22.8192C114.035 21.4093 115.981 21.0786 118.246 21.0554C120.457 21.0554 121.474 21.5511 121.474 22.2239C121.474 23.0543 119.512 23.537 117.048 24.1429L116.981 24.1594C112.889 25.1272 107.532 26.4727 107.532 30.096V32.7751H127.434V28.243H117.324ZM120.785 22.2577C120.785 22.2577 120.781 22.2533 120.779 22.2431C120.785 22.2523 120.785 22.2577 120.785 22.2577ZM98.9322 22.9202C98.9322 22.5487 98.6402 22.2579 98.2682 22.2579H91.4082V23.5707H98.2682C98.4682 23.5707 98.6082 23.51 98.7332 23.3848C98.8762 23.2422 98.9322 23.0996 98.9322 22.9202ZM99.6282 22.9202C99.6282 22.1648 99.0252 21.5629 98.2682 21.5629H90.7112V24.2656H98.2682C98.6462 24.2656 98.9662 24.1358 99.2262 23.8762C99.4982 23.6047 99.6282 23.2861 99.6282 22.9202Z" fill="black"/>
<path d="M58.5708 44.2423H61.5387V40.1786L64.5121 44.2423H65.996L68.9695 40.1786V44.2423H71.9374V36.6249H68.2276L65.2541 40.4336L62.2863 36.6249H58.5708V44.2423Z" fill="black"/>
<path d="M78.1899 36.4379C75.3243 36.4436 72.9795 37.271 72.9908 40.1559V40.7113C72.9795 43.5905 75.3243 44.4237 78.1899 44.4293C81.0499 44.4237 83.3949 43.5905 83.3839 40.7113V40.1559C83.3839 37.2767 81.0559 36.4379 78.1899 36.4379ZM80.4159 40.5243C80.4329 41.7712 79.4019 41.9979 78.1899 42.0149C76.9725 41.9979 75.9416 41.7712 75.9586 40.5243V40.3373C75.9416 39.096 76.9725 38.8693 78.1899 38.8523C79.4019 38.8693 80.4329 39.096 80.4159 40.3373V40.5243Z" fill="black"/>
<path d="M91.6979 40.445C91.6979 41.2101 91.2619 41.8392 90.4919 41.8392H87.2409V39.0507H90.4919C91.2619 39.0507 91.6979 39.6741 91.6979 40.445ZM84.2729 36.6363V44.2536H91.0469C93.1369 44.282 94.6889 42.5137 94.6719 40.445C94.6889 38.3649 93.1369 36.6079 91.0469 36.6363H84.2729Z" fill="black"/>
<path d="M102.935 40.53C102.952 41.7825 101.922 41.9979 100.709 42.0149C99.4918 41.9979 98.4668 41.7825 98.4778 40.53V36.6249H95.5098V40.717C95.4988 43.5962 97.8548 44.4237 100.709 44.4293C103.564 44.4237 105.92 43.5962 105.909 40.717V36.6249H102.935V40.53Z" fill="black"/>
<path d="M107.245 36.6249V44.2423H116.155V41.8279H110.213V36.6249H107.245Z" fill="black"/>
<path d="M117.168 44.2536H126.078V42.2983H120.136V41.3234H126.078V39.5608H120.136V38.5859H126.078V36.6363H117.168V44.2536Z" fill="black"/>
<path d="M60.2797 7.60561V6.00031H64.6786C64.8917 6.00031 65.0772 6.07741 65.2284 6.23861C65.3865 6.39291 65.4621 6.58211 65.4621 6.80641C65.4621 7.02381 65.3865 7.21301 65.2284 7.37431C65.0772 7.52851 64.8917 7.60561 64.6786 7.60561H60.2797ZM56.6782 3.24541V12.6668H60.2797V10.3675H65.579C67.4829 10.3956 69.0981 8.74821 69.0706 6.80641C69.0981 4.85771 67.4829 3.22431 65.579 3.24541H56.6782Z" fill="black"/>
<path d="M76.2393 3C72.7615 3.007 69.916 4.0305 69.9297 7.5986V8.2856C69.916 11.8467 72.7615 12.8771 76.2393 12.8841C79.71 12.8771 82.556 11.8467 82.542 8.2856V7.5986C82.542 4.0375 79.717 3 76.2393 3ZM78.94 8.0542C78.961 9.5964 77.71 9.8768 76.2393 9.8979C74.7616 9.8768 73.5107 9.5964 73.5313 8.0542V7.8229C73.5107 6.2877 74.7616 6.0073 76.2393 5.9863C77.71 6.0073 78.961 6.2877 78.94 7.8229V8.0542Z" fill="black"/>
<path d="M96.5842 9.21089L94.4462 3.24539H90.3912L88.2472 9.21089L86.1092 3.24539H82.0542L86.1092 12.6668H90.3912L92.4192 7.95609L94.4462 12.6668H98.7282L102.784 3.24539H98.7282L96.5842 9.21089Z" fill="black"/>
<path d="M103.059 12.6668H113.87V10.2484H106.66V9.04259H113.87V6.86249H106.66V5.65679H113.87V3.24539H103.059V12.6668Z" fill="black"/>
<path d="M115.788 3.2383V12.6598H119.389V10.3605H122.606L124.345 12.6598H128.18L126.166 10.017C126.771 9.7296 127.259 9.295 127.623 8.7272C127.995 8.1524 128.18 7.5075 128.18 6.7994C128.208 4.8506 126.592 3.2173 124.689 3.2383H115.788ZM123.781 5.9933C124.221 5.9933 124.572 6.3508 124.572 6.7994C124.572 7.0167 124.496 7.206 124.338 7.3672C124.187 7.5215 124.001 7.5986 123.781 7.5986H119.389V5.9933H123.781Z" fill="black"/>
</svg>
