<svg width="169" height="40" viewBox="0 0 169 40" fill="none" xmlns="http://www.w3.org/2000/svg">
<g clip-path="url(#clip0_344_100)">
<path fill-rule="evenodd" clip-rule="evenodd" d="M10.0148 2.5V40H0V2.5H10.0148Z" fill="black"/>
<path fill-rule="evenodd" clip-rule="evenodd" d="M15.022 2.5H36.3035C43.2173 2.5 48.822 8.09644 48.822 15C48.822 21.9036 43.2173 27.5 36.3035 27.5H25.0368V40H15.022V2.5ZM25.0368 17.5H36.3035C37.6863 17.5 38.8072 16.3807 38.8072 15C38.8072 13.6193 37.6863 12.5 36.3035 12.5H25.0368V17.5Z" fill="black"/>
<path fill-rule="evenodd" clip-rule="evenodd" d="M86.3776 2.5V21.875C86.3776 26.3623 90.0206 30 94.5146 30C99.0086 30 102.652 26.3623 102.652 21.875V2.5H112.667V21.875C112.667 31.8852 104.54 40 94.5146 40C84.4896 40 76.3628 31.8852 76.3628 21.875V2.5H86.3776Z" fill="black"/>
<path fill-rule="evenodd" clip-rule="evenodd" d="M52.5778 20C52.5778 10.335 60.4244 2.5 70.1037 2.5H72.6074V12.5H70.1037C65.9554 12.5 62.5926 15.8579 62.5926 20V21.25C62.5926 31.6053 54.1855 40 43.8148 40H42.563V30H43.8148C48.6545 30 52.5778 26.0825 52.5778 21.25V20Z" fill="black"/>
<path d="M169 3.75C169 5.82107 167.319 7.5 165.244 7.5C163.17 7.5 161.489 5.82107 161.489 3.75C161.489 1.67893 163.17 0 165.244 0C167.319 0 169 1.67893 169 3.75Z" fill="black"/>
<path d="M123.42 40L128.199 20.0181L131.752 32.0393C133.87 39.2091 144.041 39.2091 146.16 32.0393L149.712 20.0181L154.491 40H164.787L157.273 8.5795C155.486 1.10745 144.941 0.830788 142.763 8.19892L138.956 21.0833L135.148 8.19893C132.971 0.830831 122.425 1.10741 120.638 8.57949L113.124 40H123.42Z" fill="black"/>
</g>
<defs>
<clipPath id="clip0_344_100">
<rect width="169" height="40" fill="white"/>
</clipPath>
</defs>
</svg>
