<svg width="168" height="40" viewBox="0 0 168 40" fill="none" xmlns="http://www.w3.org/2000/svg">
<g clip-path="url(#clip0_344_5)">
<path d="M80.4223 0C79.4852 4.12657 79.1154 5.75557 73.5249 6.26504C79.1154 5.75557 78.7455 7.38457 77.8085 11.5112C78.7399 7.40909 79.1154 5.75557 84.618 5.2541C79.1154 5.75557 79.4908 4.10205 80.4223 0Z" fill="black"/>
<path d="M82.8385 10.9479C81.2664 11.9403 79.3578 12.1762 77.5114 12.3937C75.4889 12.6319 73.4868 12.8788 71.5077 13.1337C72.0319 10.827 72.276 9.89232 75.4091 9.60679C72.2431 9.89531 72.4591 8.94394 72.995 6.58375C72.4559 8.95805 72.2431 9.89531 69.0266 10.1884C72.2099 9.89834 72.0343 10.8133 71.5077 13.1337C65.5995 13.8948 59.8956 14.7277 54.4619 15.6149C60.7575 14.8473 69.5077 14.0994 77.0175 13.4576C79.4553 13.2492 82.7255 12.9916 83.4202 15.3376C83.64 16.0798 83.6438 16.9944 83.511 18.0869H80.1881L77.4451 30.9913H84.7451L87.4881 18.0869H83.7839C84.3508 16.3624 85.0589 15.017 86.2195 13.9796C87.697 12.6591 89.7857 12.3827 91.7621 12.2401C131.931 9.34189 163.557 11.4597 164.077 17.3682C164.226 19.0505 161.837 20.8712 157.42 22.7111V22.7178L157.405 22.7238V22.7111C159.042 22.0188 162.336 20.303 162.538 18.0869H155.545L152.781 24.4703C152.779 24.4817 152.77 24.4932 152.756 24.5047H152.738L152.746 24.4703C152.733 23.7591 152.714 23.0479 152.689 22.3368C152.676 21.6256 152.662 20.9201 152.646 20.2204C152.633 19.5092 152.615 18.7981 152.59 18.0869H143.214L140.471 30.9913H146.892L148.402 23.8853L148.406 23.8681H148.423C148.426 23.8681 148.429 23.8684 148.431 23.8691C148.435 23.8706 148.438 23.8737 148.438 23.8785C148.438 23.8798 148.438 23.8813 148.438 23.8829L148.437 23.8853C148.479 25.0667 148.516 26.2482 148.546 27.4297C148.576 28.6112 148.611 29.7984 148.651 30.9913H153.136L156.382 23.8337L156.385 23.8165H156.403C156.41 23.8165 156.414 23.8185 156.416 23.8225C156.417 23.8232 156.417 23.8241 156.417 23.825V23.8264C156.417 23.8285 156.417 23.8309 156.417 23.8337L154.895 30.9913H161.668L164.089 19.6002C166.552 18.1021 167.812 16.6537 167.665 15.3085C166.963 8.85556 134.133 7.04702 92.464 10.8331C92.3855 10.8403 92.3061 10.8476 92.2262 10.855L92.2154 10.856C90.2526 11.0376 87.8955 11.2556 86.8965 9.59964C85.9371 8.00944 86.5493 5.31329 87.429 1.43924C86.35 6.19079 85.6767 9.15635 82.8385 10.9479Z" fill="black"/>
<path fill-rule="evenodd" clip-rule="evenodd" d="M55.264 18.3278C54.011 17.8231 52.3407 17.5707 50.2534 17.5707C49.2566 17.5707 48.3285 17.6338 47.469 17.76C46.6213 17.8861 45.8376 18.0697 45.118 18.3106C44.3984 18.5515 43.7452 18.8382 43.1585 19.1709C42.586 19.492 42.0682 19.8591 41.6052 20.272C41.1446 20.6735 40.7412 21.1094 40.395 21.5797C40.0629 22.0385 39.7846 22.5203 39.56 23.025C39.3497 23.5182 39.1884 24.0287 39.0762 24.5563C38.9397 25.1987 38.8842 25.8181 38.9099 26.4146C38.9381 26.9996 39.0438 27.5502 39.2273 28.0663C39.4249 28.571 39.7026 29.0299 40.0605 29.4428C40.4301 29.8558 40.8822 30.2113 41.4168 30.5096C41.954 30.7963 42.5749 31.02 43.2795 31.1806C43.9959 31.3412 44.7997 31.4215 45.691 31.4215C46.1014 31.4215 46.4569 31.4043 46.7574 31.3699C47.0671 31.3469 47.3864 31.3068 47.7152 31.2494C48.0467 30.5727 48.3794 29.8902 48.7133 29.2019C49.0614 28.5022 49.4025 27.8082 49.7363 27.12C49.8315 26.9238 49.9266 26.7281 50.0216 26.5328C50.1099 26.3513 50.1982 26.1701 50.2863 25.9893C50.436 25.6826 50.5853 25.377 50.7344 25.0725L49.4764 30.9913H56.9347L58.1928 25.0725H50.7344L58.7065 23.3175C58.7505 22.2278 58.5004 21.2528 57.9562 20.3925C57.4144 19.5207 56.517 18.8325 55.264 18.3278ZM50.7344 25.0725C50.5426 25.3134 50.2677 25.5026 49.9101 25.6403C49.555 25.7665 49.0784 25.8296 48.4803 25.8296C48.0933 25.8296 47.7676 25.7894 47.5033 25.7091C47.2389 25.6288 47.0334 25.5199 46.8867 25.3822C46.7401 25.2446 46.6428 25.0954 46.5948 24.9349C46.5493 24.7628 46.546 24.585 46.585 24.4015C46.6387 24.1491 46.7532 23.914 46.9285 23.696C47.118 23.4666 47.3869 23.2773 47.7352 23.1282C48.0953 22.9791 48.5508 22.9046 49.102 22.9046C49.6883 22.9046 50.1379 22.9963 50.4507 23.1798C50.7635 23.3634 50.9444 23.6157 50.9934 23.9369C51.0424 24.2581 50.9561 24.6366 50.7344 25.0725Z" fill="black"/>
<path d="M71.3052 17.6053C70.9139 17.5822 70.5061 17.5707 70.0818 17.5707C69.003 17.5707 67.995 17.651 67.0579 17.8116C66.135 17.9607 65.2841 18.1844 64.5054 18.4826C63.7291 18.7694 63.0273 19.1192 62.4001 19.5322C61.7871 19.9337 61.244 20.3925 60.7707 20.9087C60.3092 21.4248 59.92 21.9869 59.6031 22.5948C59.298 23.2028 59.0735 23.8451 58.9297 24.5219C58.9161 24.5855 58.9034 24.649 58.8916 24.7124C67.2405 24.5412 69.2448 22.5074 71.3052 17.6053Z" fill="black"/>
<path d="M58.8918 24.7124C58.8072 25.1636 58.7642 25.6108 58.7627 26.0532C58.7727 26.558 58.8462 27.0397 58.9832 27.4985C59.1319 27.9574 59.3442 28.3932 59.6199 28.8062C59.9099 29.2077 60.2716 29.5747 60.7051 29.9074C61.1504 30.24 61.6817 30.5268 62.2989 30.7677C62.9186 30.9971 63.6254 31.1749 64.4195 31.301C64.9067 31.3845 65.4295 31.4427 65.9878 31.4755C67.6855 26.5769 67.2261 24.5855 58.8918 24.7124Z" fill="black"/>
<path d="M66.0483 31.479C66.392 31.498 66.749 31.5075 67.1193 31.5075C68.5148 31.5075 69.7671 31.3813 70.8762 31.129C71.9945 30.8881 72.9811 30.5497 73.836 30.1138C74.6934 29.6665 75.4246 29.1503 76.0297 28.5653C76.6373 27.9688 77.1245 27.3322 77.4911 26.6555C77.8602 25.9672 78.1228 25.256 78.2788 24.5219C78.2899 24.4696 78.3005 24.4176 78.3104 24.3658C70.0961 24.5352 68.0987 26.5973 66.0483 31.479Z" fill="black"/>
<path d="M78.3108 24.3658C70.1218 24.4895 69.682 22.4744 71.3669 17.609C72.9379 17.7069 74.2405 17.9924 75.2745 18.4654C76.5784 19.0619 77.4771 19.882 77.9706 20.9259C78.4449 21.9293 78.5583 23.0762 78.3108 24.3658Z" fill="black"/>
<path fill-rule="evenodd" clip-rule="evenodd" d="M116.071 23.2393L123.195 22.9218C123.544 22.1073 123.618 21.3732 123.417 20.7194C123.216 20.0656 122.773 19.5035 122.087 19.0332C121.413 18.5629 120.528 18.2016 119.432 17.9492C118.349 17.6969 117.085 17.5707 115.643 17.5707C114.623 17.5707 113.63 17.6338 112.665 17.76C111.712 17.8861 110.817 18.0697 109.98 18.3106C109.155 18.5515 108.41 18.8554 107.746 19.2225C107.095 19.5781 106.561 19.9968 106.142 20.4785C105.725 20.9488 105.455 21.4765 105.33 22.0615C105.213 22.612 105.248 23.111 105.434 23.5584C105.623 23.9942 106.018 24.3728 106.618 24.694C107.218 25.0151 108.073 25.2675 109.183 25.451C109.918 25.5647 110.789 25.6408 111.796 25.6794L104.513 26.1565C104.231 27.0971 104.217 27.9057 104.472 28.5825C104.739 29.2593 105.236 29.8156 105.964 30.2515C106.695 30.6759 107.625 30.9913 108.753 31.1978C109.882 31.4043 111.162 31.5075 112.593 31.5075C113.883 31.5075 115.105 31.41 116.261 31.215C117.426 31.0315 118.469 30.7562 119.392 30.3891C120.328 30.0106 121.089 29.546 121.676 28.9955C122.276 28.4334 122.653 27.791 122.806 27.0684C122.948 26.4031 122.917 25.8296 122.715 25.3478C122.515 24.8545 122.096 24.4531 121.458 24.1434C120.823 23.8222 119.929 23.587 118.776 23.4379C118.009 23.3387 117.107 23.2725 116.071 23.2393ZM115.87 23.2333C115.409 23.2206 114.921 23.2143 114.408 23.2143H113.969C113.652 23.2143 113.398 23.197 113.205 23.1626C113.025 23.1282 112.897 23.0709 112.82 22.9906C112.746 22.8988 112.723 22.7841 112.752 22.6465C112.777 22.5318 112.835 22.4228 112.927 22.3195C113.031 22.2163 113.155 22.1303 113.299 22.0615C113.457 21.9812 113.633 21.9238 113.828 21.8894C114.025 21.8435 114.241 21.8206 114.476 21.8206C114.851 21.8206 115.174 21.8722 115.446 21.9754C115.731 22.0672 115.921 22.2221 116.015 22.44C116.111 22.6433 116.062 22.9077 115.87 23.2333ZM112.114 25.6902C111.961 26.0198 111.928 26.2957 112.017 26.5178C112.121 26.7472 112.319 26.9193 112.611 27.034C112.904 27.1487 113.243 27.206 113.63 27.206C113.865 27.206 114.079 27.1888 114.274 27.1544C114.481 27.12 114.668 27.0684 114.835 26.9996C115.002 26.9307 115.138 26.8447 115.242 26.7415C115.348 26.6268 115.416 26.5006 115.445 26.3629C115.504 26.0876 115.395 25.9098 115.119 25.8296C114.855 25.7493 114.447 25.7091 113.896 25.7091H113.456C112.986 25.7091 112.539 25.7028 112.114 25.6902Z" fill="black"/>
<path d="M132.58 18.0869H125.28L123.55 26.2253C123.402 26.925 123.425 27.5616 123.619 28.1352C123.817 28.6972 124.146 29.1904 124.607 29.6149C125.082 30.0278 125.652 30.3777 126.319 30.6644C126.996 30.9512 127.737 31.1634 128.54 31.301C129.355 31.4387 130.191 31.5075 131.047 31.5075C132.126 31.5075 133.199 31.3985 134.265 31.1806C135.343 30.9627 136.339 30.6357 137.253 30.1999C138.169 29.7525 138.937 29.2019 139.557 28.5481C140.19 27.8828 140.601 27.1085 140.789 26.2253L142.519 18.0869H135.219L133.774 24.8832C133.704 25.2159 133.515 25.4682 133.209 25.6403C132.903 25.8123 132.579 25.8984 132.239 25.8984C132.075 25.8984 131.916 25.8754 131.761 25.8296C131.619 25.7837 131.491 25.7206 131.379 25.6403C131.282 25.5485 131.205 25.4395 131.15 25.3134C131.106 25.1872 131.103 25.0381 131.139 24.866L132.58 18.0869Z" fill="black"/>
<path fill-rule="evenodd" clip-rule="evenodd" d="M99.3278 18.0869C100.418 18.0869 101.337 18.236 102.082 18.5342C102.842 18.821 103.432 19.2167 103.853 19.7215C104.287 20.2147 104.573 20.7767 104.708 21.4076C104.844 22.0385 104.84 22.6923 104.696 23.3691C104.542 24.0917 104.255 24.78 103.835 25.4338C103.429 26.0762 102.896 26.6497 102.238 27.1544C101.591 27.6591 100.831 28.0606 99.9589 28.3588C99.0888 28.6456 98.1201 28.789 97.053 28.789H93.2711L93.2499 28.8062H93.2323L93.2286 28.8234L92.7678 30.9913H85.4502L88.1931 18.0869H99.3278ZM95.683 25.0553C96.0349 25.0553 96.3402 24.9979 96.5991 24.8832C96.8722 24.757 97.0869 24.6022 97.2432 24.4187C97.4019 24.2237 97.502 24.0287 97.5434 23.8337C97.5873 23.6272 97.5689 23.4379 97.4882 23.2659C97.41 23.0823 97.2657 22.9332 97.0556 22.8185C96.8454 22.7038 96.5586 22.6465 96.1951 22.6465H94.5768C94.565 22.6465 94.552 22.6522 94.5379 22.6637L94.5342 22.6809L94.0332 25.0381C94.0449 25.0381 94.0496 25.0438 94.0471 25.0553H95.683Z" fill="black"/>
<path fill-rule="evenodd" clip-rule="evenodd" d="M11.7828 25.9328L11.7901 25.8984L13.4505 18.0869H6.15051L3.7999 29.1455C1.19765 30.6888 -0.13916 32.1813 0.0114694 33.5645C0.769477 40.5256 38.9146 42.082 85.2109 37.0408C93.9828 36.0856 102.418 34.9621 110.324 33.721C106.134 34.0959 101.67 34.4751 97.0945 34.8638L97.0891 34.8642L97.0806 34.865L97.0749 34.8654L97.069 34.8659L97.0567 34.867C93.0374 35.2084 88.9321 35.5571 84.8498 35.9167C40.5351 39.8204 4.15823 37.8451 3.59966 31.5048C3.45233 29.832 5.8128 28.0226 10.1819 26.1933C7.06872 27.5631 5.74017 29.355 5.36723 30.9913H17.603L18.6782 25.9328H11.7828ZM9.96399 26.2607C9.89339 26.2887 9.82321 26.3166 9.75351 26.3446C10.0086 26.2445 10.2684 26.1442 10.5325 26.044C10.5739 26.0269 10.6156 26.0099 10.6575 25.993C10.5386 26.0378 10.4209 26.0827 10.3044 26.1277C10.2432 26.1513 10.1823 26.1749 10.1217 26.1986C10.0689 26.2193 10.0163 26.24 9.96399 26.2607Z" fill="black"/>
<path d="M31.7559 17.6053C31.3646 17.5822 30.9569 17.5707 30.5326 17.5707C29.4537 17.5707 28.4457 17.651 27.5086 17.8116C26.5857 17.9607 25.7349 18.1844 24.9561 18.4826C24.1798 18.7694 23.4781 19.1192 22.8509 19.5322C22.2378 19.9337 21.6947 20.3925 21.2214 20.9087C20.7599 21.4248 20.3707 21.9869 20.0538 22.5948C19.7487 23.2028 19.5242 23.8451 19.3804 24.5219C19.3734 24.5547 19.3667 24.5874 19.3601 24.6201C19.354 24.6509 19.348 24.6817 19.3423 24.7124C27.6913 24.5412 29.6955 22.5074 31.7559 17.6053Z" fill="black"/>
<path d="M19.342 24.7124C19.2575 25.1636 19.2144 25.6108 19.2129 26.0532C19.2229 26.558 19.2964 27.0397 19.4334 27.4985C19.5821 27.9574 19.7944 28.3932 20.0701 28.8062C20.3601 29.2077 20.7218 29.5747 21.1553 29.9074C21.6006 30.24 22.1319 30.5268 22.7491 30.7677C23.3688 30.9971 24.0757 31.1749 24.8697 31.301C25.3569 31.3845 25.8797 31.4427 26.438 31.4755C28.1357 26.5769 27.6763 24.5855 19.342 24.7124Z" fill="black"/>
<path d="M26.499 31.479C26.8427 31.498 27.1997 31.5075 27.57 31.5075C28.9655 31.5075 30.2178 31.3813 31.3269 31.129C32.4452 30.8881 33.4318 30.5497 34.2868 30.1138C35.1441 29.6665 35.8753 29.1503 36.4805 28.5653C37.088 27.9688 37.5752 27.3322 37.9418 26.6555C38.3109 25.9672 38.5735 25.256 38.7295 24.5219C38.7407 24.4696 38.7512 24.4176 38.7611 24.3658C30.5468 24.5352 28.5494 26.5973 26.499 31.479Z" fill="black"/>
<path d="M38.7614 24.3658C30.5724 24.4895 30.1327 22.4744 31.8176 17.609C33.3886 17.7069 34.6911 17.9924 35.7252 18.4654C37.0291 19.0619 37.9277 19.882 38.4212 20.9259C38.8956 21.9293 39.0089 23.0762 38.7614 24.3658Z" fill="black"/>
<path d="M164.628 30.9913C165.279 30.9913 165.807 30.4634 165.807 29.8121C165.807 29.1609 165.279 28.6329 164.628 28.6329C163.976 28.6329 163.449 29.1609 163.449 29.8121C163.449 30.4634 163.976 30.9913 164.628 30.9913Z" fill="black"/>
</g>
<defs>
<clipPath id="clip0_344_5">
<rect width="168" height="40" fill="white"/>
</clipPath>
</defs>
</svg>
