<svg width="112" height="34" viewBox="0 0 112 34" fill="none" xmlns="http://www.w3.org/2000/svg">
<path d="M14.6993 16.4501L8.8585 6.39982C8.84943 6.38623 8.83584 6.37263 8.82225 6.36357C8.80865 6.35451 8.79053 6.34998 8.7724 6.34998C8.75428 6.34998 8.73615 6.35451 8.72256 6.36357C8.70897 6.37263 8.69537 6.38623 8.68631 6.39982L2.9135 16.4501C2.90443 16.4637 2.8999 16.4819 2.8999 16.5C2.8999 16.5181 2.90443 16.5362 2.9135 16.5498L8.74975 26.6001C8.75881 26.6137 8.7724 26.6273 8.786 26.6364C8.79959 26.6454 8.81772 26.65 8.83584 26.65C8.85397 26.65 8.87209 26.6454 8.88568 26.6364C8.89928 26.6273 8.91287 26.6137 8.92193 26.6001L14.6993 16.5498C14.7083 16.5362 14.7129 16.5181 14.7129 16.5C14.7129 16.4819 14.7083 16.4637 14.6993 16.4501ZM16.471 15.2856C16.4801 15.2992 16.4937 15.3128 16.5072 15.3219C16.5208 15.3309 16.539 15.3354 16.5571 15.3354H19.5704C19.5885 15.3354 19.6066 15.3309 19.6202 15.3219C19.6338 15.3128 19.6474 15.2992 19.6565 15.2856C19.6655 15.272 19.6701 15.2539 19.6701 15.2358C19.6701 15.2176 19.6655 15.1995 19.6565 15.1859L14.6404 6.39982C14.6313 6.38623 14.6177 6.37263 14.6041 6.36357C14.5905 6.35451 14.5724 6.34998 14.5543 6.34998H11.541C11.5229 6.34998 11.5047 6.35451 11.4912 6.36357C11.4776 6.37263 11.464 6.38623 11.4549 6.39982C11.4458 6.41341 11.4413 6.43154 11.4413 6.44966C11.4413 6.46779 11.4458 6.48591 11.4549 6.49951L16.4665 15.2856H16.471ZM26.0908 16.4501L20.3407 6.39982C20.3316 6.38623 20.318 6.37263 20.3044 6.36357C20.2908 6.35451 20.2727 6.34998 20.2546 6.34998H17.2368C17.2187 6.34998 17.2005 6.35451 17.1869 6.36357C17.1733 6.37263 17.1597 6.38623 17.1507 6.39982C17.1416 6.41341 17.1371 6.43154 17.1371 6.44966C17.1371 6.46779 17.1416 6.48591 17.1507 6.49951L22.8691 16.5L17.1507 26.5004C17.1416 26.514 17.1371 26.5322 17.1371 26.5503C17.1371 26.5684 17.1416 26.5865 17.1507 26.6001C17.1597 26.6137 17.1733 26.6273 17.1869 26.6364C17.2005 26.6454 17.2187 26.65 17.2368 26.65H20.2546C20.2727 26.65 20.2908 26.6454 20.3044 26.6364C20.318 26.6273 20.3316 26.6137 20.3407 26.6001L26.0863 16.5498C26.0954 16.5362 26.0999 16.5181 26.0999 16.5C26.0999 16.4819 26.0954 16.4637 26.0863 16.4501H26.0908ZM19.4843 17.8095H16.471C16.4529 17.8095 16.4347 17.814 16.4212 17.8231C16.4076 17.8322 16.394 17.8458 16.3849 17.8594L11.4549 26.5004C11.4458 26.514 11.4413 26.5322 11.4413 26.5503C11.4413 26.5684 11.4458 26.5865 11.4549 26.6001C11.464 26.6137 11.4776 26.6273 11.4912 26.6364C11.5047 26.6454 11.5229 26.65 11.541 26.65H14.5543C14.5724 26.65 14.5905 26.6454 14.6041 26.6364C14.6177 26.6273 14.6313 26.6137 14.6404 26.6001L19.5704 17.9636C19.5794 17.95 19.584 17.9319 19.584 17.9137C19.584 17.8956 19.5794 17.8775 19.5704 17.8639C19.5613 17.8503 19.5477 17.8367 19.5341 17.8276C19.5205 17.8186 19.5024 17.814 19.4843 17.814V17.8095Z" fill="black"/>
<path d="M40.4579 27.3005C38.3999 27.3005 36.7745 26.745 35.5816 25.6341C34.3978 24.514 33.8059 22.9159 33.8059 20.8397V19.4602H37.767V20.867C37.767 21.805 38.0038 22.5244 38.4773 23.0252C38.9508 23.5169 39.5974 23.7628 40.4169 23.7628C41.2274 23.7628 41.8693 23.5169 42.3429 23.0252C42.8164 22.5244 43.0531 21.805 43.0531 20.867V6.64788H47.2601V20.9217C47.2601 22.9706 46.6546 24.5459 45.4435 25.6477C44.2324 26.7496 42.5705 27.3005 40.4579 27.3005ZM50.1559 27V12.5759H54.1853V27H50.1559ZM52.1638 10.7593C51.499 10.7593 50.9481 10.5589 50.511 10.1583C50.0739 9.74851 49.8554 9.23401 49.8554 8.6148C49.8554 7.99558 50.0739 7.48564 50.511 7.08497C50.9481 6.6752 51.499 6.47031 52.1638 6.47031C52.8194 6.47031 53.3658 6.6752 53.8029 7.08497C54.24 7.48564 54.4585 7.99558 54.4585 8.6148C54.4585 9.23401 54.24 9.74851 53.8029 10.1583C53.3658 10.5589 52.8194 10.7593 52.1638 10.7593ZM65.5497 12.5759V15.7312H62.5994V22.5471C62.5994 23.0388 62.695 23.3803 62.8862 23.5716C63.0865 23.7537 63.4599 23.8447 64.0062 23.8447H65.5497V27H63.2004C61.6159 27 60.4458 26.6904 59.69 26.0712C58.9433 25.452 58.5699 24.4867 58.5699 23.1754V15.7312H56.0839V12.5759H58.5699V8.64212H62.5994V12.5759H65.5497ZM71.6144 18.9821V27H67.5849V6.64788H71.6144V14.7478C72.097 13.9555 72.7026 13.3454 73.4311 12.9174C74.1686 12.4894 75.0428 12.2754 76.0536 12.2754C77.5834 12.2754 78.8082 12.7717 79.7279 13.7643C80.6476 14.7478 81.1075 16.1501 81.1075 17.9713V27H77.0917V18.7089C77.0917 17.7437 76.8595 17.0106 76.3951 16.5098C75.9307 15.9998 75.2796 15.7449 74.4418 15.7449C73.6132 15.7449 72.9348 16.0044 72.4066 16.5234C71.8785 17.0425 71.6144 17.862 71.6144 18.9821ZM89.0435 27.3005C87.5045 27.3005 86.2752 26.8088 85.3555 25.8253C84.4358 24.8327 83.9759 23.4259 83.9759 21.6046V12.5759H88.0054V20.867C88.0054 21.8323 88.233 22.5699 88.6883 23.0798C89.1527 23.5807 89.8084 23.8311 90.6552 23.8311C91.4839 23.8311 92.1623 23.5716 92.6904 23.0525C93.2186 22.5335 93.4827 21.7139 93.4827 20.5939V12.5759H97.4985V27H93.551V24.7326C93.0592 25.5521 92.4446 26.185 91.707 26.6312C90.9694 27.0774 90.0815 27.3005 89.0435 27.3005Z" fill="black"/>
<path d="M106.107 6H106.107C103.287 6 101 8.28654 101 11.1071V11.1072C101 13.9278 103.287 16.2143 106.107 16.2143H106.107C108.928 16.2143 111.214 13.9278 111.214 11.1072V11.1071C111.214 8.28654 108.928 6 106.107 6Z" stroke="black" stroke-width="0.785714"/>
<path d="M108.181 10.2076H107.203C107.185 10.0811 107.149 9.96879 107.093 9.87057C107.038 9.77087 106.968 9.68605 106.881 9.61611C106.795 9.54617 106.695 9.4926 106.582 9.4554C106.471 9.41819 106.349 9.39959 106.218 9.39959C105.982 9.39959 105.776 9.45837 105.6 9.57593C105.425 9.692 105.288 9.86165 105.192 10.0849C105.095 10.3066 105.047 10.5759 105.047 10.8929C105.047 11.2188 105.095 11.4926 105.192 11.7143C105.29 11.9361 105.427 12.1035 105.602 12.2166C105.778 12.3297 105.981 12.3862 106.212 12.3862C106.341 12.3862 106.461 12.3691 106.571 12.3349C106.683 12.3007 106.782 12.2508 106.868 12.1853C106.954 12.1184 107.026 12.0373 107.082 11.942C107.14 11.8468 107.181 11.7382 107.203 11.6161L108.181 11.6206C108.155 11.8304 108.092 12.0328 107.991 12.2277C107.891 12.4212 107.756 12.5946 107.587 12.7478C107.419 12.8996 107.218 13.0201 106.984 13.1094C106.752 13.1972 106.489 13.2411 106.196 13.2411C105.788 13.2411 105.424 13.1489 105.102 12.9643C104.782 12.7798 104.529 12.5127 104.343 12.163C104.159 11.8133 104.067 11.3899 104.067 10.8929C104.067 10.3944 104.16 9.97028 104.348 9.62057C104.535 9.27087 104.79 9.0045 105.111 8.82147C105.433 8.63694 105.794 8.54468 106.196 8.54468C106.461 8.54468 106.707 8.58188 106.933 8.65629C107.16 8.73069 107.362 8.83932 107.538 8.98218C107.713 9.12355 107.856 9.29691 107.966 9.50227C108.078 9.70763 108.149 9.94275 108.181 10.2076Z" fill="black"/>
</svg>
