<svg width="25" height="25" viewBox="0 0 25 25" fill="none" xmlns="http://www.w3.org/2000/svg">
<g clip-path="url(#clip0_388_138)">
<path fill-rule="evenodd" clip-rule="evenodd" d="M4.46563 22.8264L1.77862 19.479C1.13213 18.6737 0.78125 17.6833 0.78125 16.664V4.54296C0.78125 3.01613 2.0028 1.7492 3.57868 1.6416L16.0407 0.790767C16.9461 0.728956 17.8459 0.969603 18.5897 1.47242L22.9681 4.43274C23.752 4.96265 24.2188 5.8289 24.2188 6.75333V20.5338C24.2188 22.028 23.0177 23.2651 21.4747 23.3601L7.64323 24.2115C6.41198 24.2873 5.22187 23.7685 4.46563 22.8264Z" fill="white"/>
<path d="M8.78705 10.6084V10.4498C8.78705 10.0475 9.10924 9.71392 9.52447 9.68618L12.5489 9.48423L16.7315 15.6434V10.2377L15.6549 10.0941V10.0188C15.6549 9.61181 15.9845 9.27603 16.405 9.25446L19.157 9.11353V9.50954C19.157 9.6954 19.0187 9.85446 18.8292 9.88649L18.167 9.99853V18.753L17.3359 19.0388C16.6415 19.2776 15.8685 19.022 15.471 18.4222L11.4105 12.2948V18.1431L12.6603 18.3822L12.6429 18.4981C12.5883 18.8613 12.2748 19.1359 11.8956 19.1528L8.78705 19.2912C8.74596 18.9006 9.03861 18.5513 9.44236 18.5089L9.85127 18.4659V10.6682L8.78705 10.6084Z" fill="black"/>
<path fill-rule="evenodd" clip-rule="evenodd" d="M16.1524 2.31772L3.69034 3.16856C2.94387 3.21953 2.36523 3.81965 2.36523 4.54289V16.6639C2.36523 17.3434 2.59916 18.0037 3.03015 18.5406L5.71716 21.888C6.15159 22.4291 6.83527 22.7272 7.54259 22.6837L21.374 21.8323C22.0829 21.7886 22.6348 21.2202 22.6348 20.5337V6.75325C22.6348 6.32851 22.4204 5.93051 22.0602 5.68704L17.6818 2.72671C17.2355 2.42503 16.6956 2.28064 16.1524 2.31772ZM4.3083 4.73196C4.13498 4.60363 4.21747 4.33629 4.4352 4.32067L16.2362 3.47423C16.6122 3.44726 16.9858 3.5508 17.2899 3.76624L19.6577 5.44378C19.7475 5.50746 19.7054 5.64495 19.5941 5.651L7.0969 6.33068C6.7187 6.35125 6.34538 6.24014 6.04466 6.0175L4.3083 4.73196ZM6.51073 8.46141C6.51073 8.05539 6.83873 7.72006 7.25815 7.69721L20.4712 6.97762C20.88 6.95536 21.2241 7.26972 21.2241 7.66541V19.5978C21.2241 20.003 20.8973 20.338 20.4787 20.3619L7.34925 21.1089C6.89434 21.1348 6.51073 20.7852 6.51073 20.3448V8.46141Z" fill="black"/>
</g>
<defs>
<clipPath id="clip0_388_138">
<rect width="25" height="25" fill="white"/>
</clipPath>
</defs>
</svg>
