<svg width="25" height="25" viewBox="0 0 25 25" fill="none" xmlns="http://www.w3.org/2000/svg">
<path d="M14.592 12.4811C14.592 11.3605 13.6551 10.4519 12.4991 10.4519C11.3434 10.4519 10.4062 11.3605 10.4062 12.4811C10.4062 13.6019 11.3434 14.5104 12.4991 14.5104C13.6551 14.5104 14.592 13.6019 14.592 12.4811Z" fill="#53C1DE"/>
<path fill-rule="evenodd" clip-rule="evenodd" d="M19.2972 8.71383C19.7391 6.97248 20.2947 3.74334 18.3362 2.64856C16.387 1.55855 13.8503 3.64721 12.5109 4.90092C11.1753 3.6597 8.56742 1.57998 6.61065 2.67823C4.66212 3.7719 5.263 6.9475 5.71477 8.69977C3.89712 9.20031 0.78125 10.2784 0.78125 12.4812C0.78125 14.6777 3.89387 15.8506 5.70077 16.3507C5.24733 18.1127 4.67653 21.2429 6.62755 22.3341C8.59164 23.4322 11.1914 21.402 12.5433 20.1345C13.8913 21.3956 16.4036 23.4391 18.3533 22.3448C20.3091 21.2471 19.7997 18.0612 19.3479 16.2988C21.0995 15.7977 24.2188 14.6502 24.2188 12.4812C24.2188 10.2996 21.0862 9.21273 19.2972 8.71383ZM19.0752 15.3648C18.7785 14.4544 18.3781 13.4862 17.8884 12.486C18.3559 11.5095 18.7407 10.5537 19.0291 9.64914C20.3405 10.0178 23.2176 10.8604 23.2176 12.4812C23.2176 14.1172 20.4567 14.9677 19.0752 15.3648ZM17.8516 21.5047C16.3969 22.3211 14.236 20.3669 13.2405 19.4382C13.9009 18.7378 14.5609 17.9236 15.2051 17.0195C16.3382 16.922 17.4086 16.7627 18.3794 16.5451C18.6973 17.7917 19.3127 20.6846 17.8516 21.5047ZM7.12783 21.493C5.67299 20.6797 6.33795 17.8864 6.67154 16.5885C7.63152 16.7945 8.69422 16.9426 9.83 17.0319C10.4784 17.9166 11.1575 18.7298 11.8419 19.442C10.9963 20.235 8.58945 22.3102 7.12783 21.493ZM1.78241 12.4812C1.78241 10.8391 4.64224 10.0026 5.98362 9.63484C6.27696 10.5598 6.66168 11.5269 7.12596 12.5048C6.65566 13.4973 6.26545 14.4798 5.96941 15.4156C4.69038 15.0606 1.78241 14.1243 1.78241 12.4812ZM7.11227 3.51839C8.57305 2.69856 10.8396 4.69518 11.8093 5.59385C11.1284 6.30276 10.4555 7.10984 9.81273 7.98945C8.71047 8.08851 7.65527 8.24758 6.68523 8.4607C6.32129 7.04743 5.65306 4.33734 7.11227 3.51839ZM15.9213 9.04461C16.6691 9.13609 17.3856 9.25781 18.0584 9.40672C17.8564 10.0344 17.6047 10.6907 17.3082 11.3635C16.8784 10.5729 16.4171 9.79812 15.9213 9.04461ZM12.5112 6.28758C12.973 6.77263 13.4355 7.3143 13.8905 7.90195C12.9676 7.85961 12.0432 7.85945 11.1203 7.90133C11.5757 7.31912 12.0422 6.77826 12.5112 6.28758ZM7.70039 11.3628C7.40882 10.6923 7.15936 10.0331 6.95564 9.39648C7.62436 9.25141 8.3375 9.13281 9.08047 9.04281C8.58328 9.79469 8.12273 10.5691 7.70039 11.3628ZM9.1018 15.9888C8.3343 15.9058 7.61036 15.7932 6.94184 15.6521C7.14878 15.0043 7.40373 14.3309 7.70153 13.6459C8.12969 14.4479 8.59727 15.2298 9.1018 15.9888ZM12.5389 18.7434C12.0644 18.2469 11.591 17.6977 11.1287 17.1071C12.0569 17.1424 12.9868 17.1425 13.9148 17.1023C13.4584 17.7037 12.9976 18.2537 12.5389 18.7434ZM17.3177 13.6111C17.631 14.3034 17.8951 14.9732 18.1048 15.6101C17.4252 15.7605 16.6916 15.8816 15.9185 15.9715C16.418 15.2037 16.8866 14.4169 17.3177 13.6111ZM14.6463 16.0891C13.2266 16.1875 11.7981 16.1864 10.378 16.0972C9.57102 14.9543 8.85266 13.7523 8.23258 12.5045C8.84969 11.2593 9.56281 10.0597 10.3659 8.91859C11.7871 8.81445 13.217 8.81414 14.6382 8.91922C15.4345 10.0602 16.1465 11.2567 16.7779 12.4907C16.154 13.7353 15.4371 14.9373 14.6463 16.0891ZM17.8362 3.48953C19.2973 4.30667 18.647 7.2088 18.3277 8.47078C17.3554 8.2532 16.2995 8.09133 15.194 7.9907C14.5499 7.10159 13.8827 6.29311 13.2128 5.59335C14.1949 4.67532 16.3891 2.68038 17.8362 3.48953Z" fill="#53C1DE"/>
</svg>
