<svg width="25" height="25" viewBox="0 0 25 25" fill="none" xmlns="http://www.w3.org/2000/svg">
<path fill-rule="evenodd" clip-rule="evenodd" d="M6.33522 3.74233L12.5 3.125L18.6648 3.74233L23.4374 9.81094L12.5 21.8749L1.5625 9.81094L6.33522 3.74233Z" fill="#FDB300"/>
<path d="M5.99268 9.81104L12.4999 21.8751L1.5625 9.81104H5.99268ZM19.0073 9.81104L12.4999 21.8751L23.4375 9.81104" fill="#EA6C00"/>
<path fill-rule="evenodd" clip-rule="evenodd" d="M5.99219 9.81104H19.0066L12.4995 21.8751" fill="#FDAD00"/>
<path d="M12.4995 3.125L6.33467 3.74222L5.99219 9.81086L12.4995 3.125ZM12.4995 3.125L18.6643 3.74222L19.0068 9.81086" fill="#FDD231"/>
<path d="M23.4375 9.81083L18.6648 3.74219L19.0073 9.81083H23.4375ZM1.5625 9.81083L6.33516 3.74219L5.99268 9.81083" fill="#FDAD00"/>
<path fill-rule="evenodd" clip-rule="evenodd" d="M12.4995 3.125L5.99219 9.81086H19.0066" fill="#FEEEB7"/>
</svg>
