<svg width="25" height="25" viewBox="0 0 25 25" fill="none" xmlns="http://www.w3.org/2000/svg">
<path fill-rule="evenodd" clip-rule="evenodd" d="M19.5416 3.125H5.47023C4.175 3.125 3.125 4.17434 3.125 5.46875V19.5312C3.125 20.8257 4.175 21.875 5.47023 21.875H19.5416C20.8323 21.8684 21.875 20.821 21.875 19.5312V5.46875C21.875 4.17896 20.8323 3.13155 19.5416 3.125ZM7.03125 5.46875H10.1562C11.0192 5.46875 11.7188 6.1683 11.7188 7.03125V17.9688C11.7188 18.8317 11.0192 19.5312 10.1562 19.5312H7.03125C6.1683 19.5312 5.46875 18.8317 5.46875 17.9688V7.03125C5.46875 6.1683 6.1683 5.46875 7.03125 5.46875ZM17.9688 5.46875H14.8438C13.9808 5.46875 13.2812 6.1683 13.2812 7.03125V12.5C13.2812 13.363 13.9808 14.0625 14.8438 14.0625H17.9688C18.8317 14.0625 19.5312 13.363 19.5312 12.5V7.03125C19.5312 6.1683 18.8317 5.46875 17.9688 5.46875Z" fill="url(#paint0_linear_401_35)"/>
<defs>
<linearGradient id="paint0_linear_401_35" x1="12.5059" y1="21.875" x2="12.5059" y2="3.125" gradientUnits="userSpaceOnUse">
<stop stop-color="#0052CC"/>
<stop offset="0.51698" stop-color="#217EF8"/>
<stop offset="1" stop-color="#2684FF"/>
</linearGradient>
</defs>
</svg>
