<svg width="25" height="25" viewBox="0 0 25 25" fill="none" xmlns="http://www.w3.org/2000/svg">
<path d="M18.6289 6.29297C16.9922 4.65234 14.8125 3.75 12.4961 3.75C7.71484 3.75 3.82422 7.64062 3.82422 12.4219C3.82422 13.9492 4.22266 15.4414 4.98047 16.7578L3.75 21.25L8.34766 20.043C9.61328 20.7344 11.0391 21.0977 12.4922 21.0977H12.4961C17.2734 21.0977 21.25 17.207 21.25 12.4258C21.25 10.1094 20.2656 7.93359 18.6289 6.29297ZM12.4961 19.6367C11.1992 19.6367 9.92969 19.2891 8.82422 18.6328L8.5625 18.4766L5.83594 19.1914L6.5625 16.5312L6.39063 16.2578C5.66797 15.1094 5.28906 13.7852 5.28906 12.4219C5.28906 8.44922 8.52344 5.21484 12.5 5.21484C14.4258 5.21484 16.2344 5.96484 17.5938 7.32813C18.9531 8.69141 19.7891 10.5 19.7852 12.4258C19.7852 16.4023 16.4688 19.6367 12.4961 19.6367ZM16.4492 14.2383C16.2344 14.1289 15.168 13.6055 14.9688 13.5352C14.7695 13.4609 14.625 13.4258 14.4805 13.6445C14.3359 13.8633 13.9219 14.3477 13.793 14.4961C13.668 14.6406 13.5391 14.6602 13.3242 14.5508C12.0508 13.9141 11.2148 13.4141 10.375 11.9727C10.1523 11.5898 10.5977 11.6172 11.0117 10.7891C11.082 10.6445 11.0469 10.5195 10.9922 10.4102C10.9375 10.3008 10.5039 9.23438 10.3242 8.80078C10.1484 8.37891 9.96875 8.4375 9.83594 8.42969C9.71094 8.42188 9.56641 8.42188 9.42188 8.42188C9.27734 8.42188 9.04297 8.47656 8.84375 8.69141C8.64453 8.91016 8.08594 9.43359 8.08594 10.5C8.08594 11.5664 8.86328 12.5977 8.96875 12.7422C9.07812 12.8867 10.4961 15.0742 12.6719 16.0156C14.0469 16.6094 14.5859 16.6602 15.2734 16.5586C15.6914 16.4961 16.5547 16.0352 16.7344 15.5273C16.9141 15.0195 16.9141 14.5859 16.8594 14.4961C16.8086 14.3984 16.6641 14.3438 16.4492 14.2383Z" fill="white"/>
</svg>
